<svg xmlns="http://www.w3.org/2000/svg" xml:space="preserve" width="20mm" height="20mm" fill-rule="evenodd" stroke-linejoin="round" stroke-width="28.222" preserveAspectRatio="xMidYMid" version="1.2" viewBox="0 0 2000 2000"><path d="M837.256 629.127c-36.636 0-66.894 8.493-89.712 26.875-23.142 18.641-34.487 43.475-34.487 74.789 0 20.906 4.994 39.029 16.237 53.586 10.355 14.077 23.217 25.04 38.843 33.166 14.971 7.785 34.317 16.111 57.882 24.658 20.614 7.84 35.788 14.426 46.048 19.553 9.717 5 16.913 10.236 21.642 15.712 4.243 4.913 6.604 11.149 6.604 18.342 0 10.907-4.37 20.222-12.752 27.43-8.408 6.943-21.588 11.052-40.656 11.052-22.235 0-38.91-4.992-50.69-13.698-11.541-8.531-17.34-19.574-17.34-31.807v-9.36c0-3.535-1.408-6.889-3.916-9.454-2.685-3.058-6.338-4.149-9.686-4.149h-44.18c-3.616 0-7.004 1.466-9.57 4.032-2.58 2.579-4.023 5.983-4.023 9.57v12.58c0 21.704 5.636 40.397 16.863 56.756a7.748 7.748 0 0 0 .058.084c11.52 16.319 27.228 28.453 47.689 37.444a7.748 7.748 0 0 0 .051.023c20.179 8.692 43.799 12.924 70.356 12.924 39.255 0 70.959-9.073 94.646-28.014 24.307-19.2 35.99-44.693 35.99-76.87 0-20.722-5.366-38.857-16.844-53.616-10.592-13.703-23.432-24.687-38.527-32.55-14.4-7.499-33.461-15.536-56.955-24.64a7.748 7.748 0 0 0-.205-.076c-22.177-7.879-38.056-14.12-48.281-19.232a7.748 7.748 0 0 0-.157-.077c-9.813-4.633-16.717-9.856-21.129-15.004-3.798-4.432-6.038-10.745-6.038-19.238 0-11.394 4.207-20.136 11.847-25.997 8.502-6.296 20.735-9.85 37.757-9.85 21.285 0 36.839 4.949 47.606 14.214a7.748 7.748 0 0 0 .067.056c11.13 9.36 16.553 20.748 16.553 33.573v5.261c0 3.63 1.277 7.043 3.906 9.738 2.686 3.067 6.344 4.16 9.696 4.16h44.468c3.713 0 7.167-1.331 9.867-4.03 2.7-2.7 4.03-6.154 4.03-9.868v-8.48c0-21.43-5.625-40.686-17.482-57.675-11.4-16.462-27.142-29.31-47.333-38.329-20.24-9.333-43.32-13.564-68.744-13.564zm68.743 13.564c.013.007.026.011.04.017l-.09-.04c.017.006.033.015.05.023zm47.333 38.328c0 .005.011.008.011.013l-.017-.025c0 .005 0 .007.01.012zm-16.17 290.201c-.006.01-.013.012-.02.017l.039-.03c-.006 0-.012.01-.018.013zM729.295 784.377c-.035-.048-.072-.093-.106-.14l.117.155-.012-.015zm573.21 4.002c-3.326 0-6.991 1.072-9.687 4.141-2.636 2.696-3.916 6.114-3.916 9.749v335.008c0 3.54 1.4 6.896 3.929 9.474 2.694 3.058 6.353 4.128 9.673 4.128h45.645c3.588 0 6.992-1.445 9.57-4.023 2.592-2.592 4.024-5.991 4.024-9.579v-215.56l51.025 77.62a7.748 7.748 0 0 0 .027.042c3.226 4.838 7.96 7.254 13.47 7.254h22.822c5.509 0 10.244-2.416 13.47-7.254a7.748 7.748 0 0 0 .058-.087l50.699-78.334v216.32c0 2.634.508 6.35 3.735 9.578 2.713 2.713 6.18 4.023 9.867 4.023h45.644c3.588 0 6.993-1.444 9.57-4.023 2.593-2.592 4.024-5.992 4.024-9.579V802.27c0-3.686-1.309-7.154-4.023-9.867-2.579-2.58-5.984-4.023-9.57-4.023h-45.645c-6.145 0-10.425 2.975-13.47 7.542a7.748 7.748 0 0 0-.02.029l-76.043 115.172-76.043-115.172.307.506c-2.853-5.135-7.354-8.077-13.5-8.077zM1167.346 892.64c-3.006 0-5.988.729-8.698 3.438-2.031 2.032-3.727 5.129-3.727 8.698v38.185h-15.074c-4.576 0-6.913 1.95-8.698 3.735-1.786 1.786-3.735 4.122-3.735 8.698v33.056c0 3.602 1.72 6.683 3.735 8.698 2.71 2.71 5.692 3.439 8.698 3.439h15.074v93.783a7.748 7.748 0 0 0 0 .12c.316 20.21 6.108 36.017 19.292 44.68 11.91 7.828 28.932 11.516 50.188 11.516 4.845 0 12.408-.307 22.68-.894a7.748 7.748 0 0 0 .26-.02c7.065-.641 11.722-5.468 11.722-12.392v-35.403c0-3.568-1.695-6.666-3.726-8.698-2.71-2.71-5.692-3.438-8.698-3.438h-11.996c-5.795 0-8.8-1.477-10.47-3.15-1.746-2.37-3.14-6.473-3.14-13.39v-72.714h29.698c3.006 0 5.988-.73 8.698-3.439 2.015-2.015 3.734-5.096 3.734-8.698v-33.056c0-4.576-1.948-6.912-3.734-8.698-1.785-1.785-4.123-3.735-8.698-3.735h-29.698v-38.185c0-2.573-.64-5.892-3.446-8.698-2.805-2.805-6.153-3.438-8.69-3.438zm357.846 9.51-.217.546-.258.494-.1.156a7.748 7.748 0 0 0 .575-1.197zm-175.619.584a7.748 7.748 0 0 0 .598 1.233l-.122-.189-.282-.55zm82.811 16.114a7.748 7.748 0 0 0-.594 1.223l.206-.522.28-.535zm-400.139 20.774c-22.52 0-41.53 5.614-57.932 16.87a7.748 7.748 0 0 0-.084.06c-16.43 11.597-27.587 27.297-33.932 47.283a7.748 7.748 0 0 0-.02.065c-3.806 12.37-5.315 26.372-5.315 41.485 0 14.297 1.519 27.66 5.297 40.255 6.031 20.308 17.103 36.542 33.244 48.486a7.748 7.748 0 0 0 .06.044c16.448 11.934 35.77 17.861 58.098 17.861 22.328 0 41.642-5.928 58.09-17.86a7.748 7.748 0 0 0 .138-.103c16.151-12.275 26.886-28.847 32.876-49.62 3.739-12.475 5.587-25.803 5.587-39.646 0-14.57-2.168-28.163-6.185-41.45a7.748 7.748 0 0 0-.077-.243c-6.61-19.515-17.364-35.191-33.589-46.557-15.786-11.264-34.65-16.93-56.255-16.93zm56.255 16.93.036.024-.06-.042c.011.006.017.012.025.018zm34.265 127.897c0 .01-.011.022-.011.032l.024-.083c0 .018-.011.034-.015.05zm-91.4-84.271c6.531 0 11.893 1.927 15.781 5.201a7.748 7.748 0 0 0 .15.124c4.34 3.47 7.746 8.576 9.99 15.76 1.81 6.51 2.902 14.511 2.902 24.123 0 8.714-1.087 16.818-2.963 24.064-1.976 7.396-5.392 12.802-9.81 16.558a7.748 7.748 0 0 0-.148.13c-3.853 3.446-9.072 5.337-15.606 5.337-6.627 0-12.107-1.863-16.347-5.467-4.422-3.759-7.84-9.17-9.815-16.577a7.748 7.748 0 0 0-.037-.132c-1.495-5.231-2.337-13.101-2.337-23.913 0-11.414.868-19.141 2.488-23.77a7.748 7.748 0 0 0 .087-.263c2.318-7.468 5.457-12.496 9.587-15.974 3.887-3.273 9.196-5.201 16.078-5.201z" style="display:inline;fill:#525252;fill-opacity:1;stroke:none;stroke-width:23.4067;stroke-linecap:round;stroke-linejoin:round;stroke-dasharray:none;stroke-opacity:1;paint-order:stroke markers fill"/><path d="M704.844 91.06c-17.57-7.931-43.758 29.765-109.796 37.413-57.138 6.617-91.83-5.702-76.37 88.855 18.365 112.335-163.269 4.504-224.669 27.379-90.516 33.721 25.311 276.138-68.29 287.37-160.4 19.245-177.467 249.706-52.524 305.066 57.193 25.342 115.74 30.45 162.014 17.537 69.812-19.48 108.659-46.232 126.717-5.99 55.376 123.409 121.548 83.593 194.55 146.544 25.373 21.88-7.566 63.82 29.485 98.617 37.052 34.796 80.363 18.842 93.171 54.91 26.602 74.91 36.839 136.558 68.86 172.336 28.093 31.39 71.609 12.486 116.098 104.166 44.488 91.68 84.653 147.364-10.307 206.026-160.357 99.062-34.958 120.861 36.26 178.887 29.29 23.865 21.456 88.681 36.732 97.872 12.087 7.273 76.609-103.732 119.429-147.384 148.66-151.547 21.112-255.786 173.906-294.873 213.941-54.73 294.463-38.24 367.88-376.865 63.261-291.779 347.615-320.947 148.61-516.642-136.47-134.201-313.616-93.673-383.687-149.7-123.505-98.748-231.787-56.783-271.803-97.775-12.154-12.45 5.31-62.678-7.68-106.656-44.482-150.601-72.072-50.884-109.002-9.57-25.363 28.374-121.254-3.834-285.288 48.664-50.036 16.014-46.19-102.796-58.44-140.241-5.1-15.586-10-23.302-15.856-25.946Zm132.41 494.677c30.165 0 59.609 5.017 86.676 17.449 26.782 12.007 48.76 29.611 65.016 53.052l.01.007v.007c17.63 25.288 25.25 52.419 25.25 82.44v8.481c0 16.112-4.354 28.16-16.737 40.544-6.087 6.086-12.097 10.232-18.546 12.876a168.977 168.977 0 0 1 11.651 13.518c0 .006.012.01.017.016v.007c18.393 23.67 25.953 51.591 25.953 80.214 0 .87-.012 1.73-.024 2.595 5.143-.47 10.375-.713 15.728-.713 25.104 0 48.965 5.712 70.228 17.841 2.476-2.366 5.385-4.88 9.057-7.159v-2.138c0-17.005 7.95-30.89 16.44-39.382 12.969-12.968 27.725-16.144 39.375-16.144h41.553c9.507 0 23.716 2.225 36.62 13.565v-60.547c0-18.165 1.893-25.373 15.43-39.223 12.715-14.07 28.933-18.057 41.553-18.057h45.645c23.061 0 39.238 10.26 49.913 27.827l39.327 59.554 39.83-60.33a51.137 51.137 0 0 1 .129-.185c10.264-15.396 25.397-26.866 49.568-26.866h45.645c15.48 0 29.786 6.258 40.255 16.728v.007c14.752 14.751 16.729 21.802 16.729 40.544v335.008c0 15.476-6.177 29.703-16.729 40.256-10.466 10.467-24.768 16.736-40.255 16.736h-45.645c-18.754 0-25.796-1.989-40.543-16.736-19.267-19.267-16.448-28.477-16.448-40.256v-90.92c-6.55 2.409-13.568 3.667-20.837 3.667h-22.822c-7.378 0-14.5-1.29-21.133-3.772v91.025c0 15.487-6.18 29.707-16.728 40.256-10.465 10.464-24.769 16.736-40.256 16.736h-45.645c-8.75 0-19.225-1.916-29.068-7.768-6.68 3.52-14.19 5.762-22.166 6.487a51.137 51.137 0 0 1-1.705.12c-10.443.596-19.402.969-25.161.969-25.597 0-52.753-4.67-74.017-18.643-8.31-5.46-14.972-11.926-20.275-19.026a135.52 135.52 0 0 1-13.966 12.204 51.137 51.137 0 0 1-.913.68c-24.992 18.132-52.534 26.13-83.57 26.13-31.036 0-58.578-7.992-83.578-26.13a51.137 51.137 0 0 1-.384-.288c-24.609-18.21-40.331-41.77-49.008-70.941-5.27-17.594-7.12-35.327-7.12-52.676 0-2.458.049-4.937.121-7.423-15.693 3.189-32.164 4.66-49.176 4.66-31.09 0-60.84-4.972-87.518-16.464a51.137 51.137 0 0 1-.344-.152c-26.904-11.821-48.641-28-65.68-52.139a51.137 51.137 0 0 1-.385-.56c-16.75-24.407-24.48-51.118-24.48-81.304v-12.58c0-15.48 6.268-29.788 16.736-40.256 6.978-6.978 15.678-12.125 25.393-14.759-3.999-4.273-7.78-8.804-11.347-13.597-18.482-23.974-25.225-51.81-25.225-80.022 0-44.462 15.897-80.577 50.658-108.579 32.631-26.286 73.394-36.475 116.93-36.475zm558.178 310.424-.496.753-.705 1.353a51.137 51.137 0 0 1 1.201-2.106zm-2.594 4.78-.313.585-1.898 4.82a51.137 51.137 0 0 1 2.21-5.404zm173.522 14.927a51.137 51.137 0 0 1-2.186 5.39l.208-.4zm-257.949.585 1.762 4.516.384.745a51.137 51.137 0 0 1-2.146-5.261zm254.593 7.055a51.137 51.137 0 0 1-1.233 2.202l.457-.705zm-251.118.8.657 1.282.56.873a51.137 51.137 0 0 1-1.217-2.154z" style="display:inline;fill:#6ed487;fill-opacity:1;stroke:none;stroke-width:4.37331"/></svg>