<svg xmlns="http://www.w3.org/2000/svg" xml:space="preserve" width="256" height="256" viewBox="0 0 67.733 67.733"><path d="M51.67 59.887c-8.54 8.54-22.387 8.54-30.928 0 .069-.01 30.928-30.927 30.928-30.927 8.54 8.54 8.54 22.387 0 30.927z" style="opacity:1;fill:#90cccc;fill-opacity:1;stroke:none;stroke-width:1.31335;stroke-linecap:round;stroke-linejoin:round;stroke-dasharray:none;stroke-opacity:.216695;paint-order:stroke markers fill"/><path d="m51.67 28.96-4.938 4.944c.22.315.384.667.378.78-.028.513-.702 1.882-.286 1.878.467-.005.69-1.662 1.636-1.893.693-.17 1.55.326 2.086-.197.77-.751 1.51-.852 2.01-.645.462.192.43-.427 1.458-.173.516.128.896.04 1.164-.115a21.892 21.892 0 0 0-3.508-4.58Zm-5.604 8.172c-.635-.672-1.735-.55-.68-.121.564.229.623 1.15.901 1.846.172.43 1.024.729.689.05-.292-.591-.427-1.095-.79-1.63a1.402 1.402 0 0 0-.12-.145zm1.675 2.985c-.19-.195-.369-.345-.413-.338-.246.04.113.364-.503.243-.24-.048 1.04 1.006 1.384.919.193-.05-.153-.499-.468-.824zm-4.546-1.64c-.176-.158-.422-.29-.607-.422l-.782.783c.19.387-.31 1.274-.13 1.589.26.455.155.96.621 1.544.306.383.917-.48.966.331.039.633-.191 1.35-.74 1.726-.593.407-1.36.414-1.84.972-.399.466.193.546-.571.97-.65.36-.247 1.334-.245 1.975.004.924-.17 1.896.154 2.776.265.722 1.045 1.366.758 2.2-.533 1.55-1.575 2.704-2.28 4.248-.298.652-.78.963-1.096 1.735-.342.835-.804 2.098-1.246 2.889-.164.294-.627 1.363-.543 2.004.163 1.238 1.508 1.857 1.52 1.393.007-.312-.428-1.001-.046-1.499.614-.799.947-.494.943-1.385-.002-.272.817-.456 1.122-.976.098-.168-.043-.374.173-.492.165-.09.483.233.865-.268.117-.152.476-.028.766-.021 1.32.031.986-.968 1.189-.984.198-.016.628.756 1.905.052.646-.357 1.394-.543 1.94-1.096.661-.67 1.652-.103 2.48-.088.854.015 1.868-.762 2.338-1.46.698-1.038 1.49-.788 2.241-1.29.88-.588 1.055-1.015.305-2.108-.723-1.055-1.421-1.468-1.611-1.841-.275-.54-.527-.73-.882-1.175-.637-.795.023-1.26-.146-1.952-.186-.76-.876-1.086-1.34-1.615-.414-.472-.398-1.2-.663-1.757-.521-1.094-1.61-1.122-1.853-1.786-.375-1.018-1.206-.091-1.18-.363.02-.197.754-.724-.123-.875-1.302-.225-1.513.697-1.92-.106-.438-.865-1.268-.26-1.295-1.294-.03-1.154 1.32-1.192 1.054-2.052a.653.653 0 0 0-.2-.282z" style="fill:#4e8201;fill-opacity:1;stroke:none;stroke-width:1.31335;stroke-linecap:round;stroke-linejoin:round;stroke-dasharray:none;stroke-opacity:.216695;paint-order:stroke markers fill"/><path d="M47 19.283a3.26 3.26 0 0 0-4.289 1.692 3.26 3.26 0 0 0-.013 2.56c-3.174-2.178-3.964-5.34-3.964-5.34l-1.083 22.01L53.437 24.58s-2.865 1.303-6.448.686a3.26 3.26 0 0 0 1.702-1.695 3.26 3.26 0 0 0-1.692-4.288z" style="fill:#32406d;fill-opacity:1;stroke:none;stroke-width:.102631px;stroke-linecap:butt;stroke-linejoin:miter;stroke-opacity:1"/><path d="M10.88 55.38a3.26 3.26 0 0 0 4.314 1.622 3.26 3.26 0 0 0 1.728-1.89c.892 3.744-.644 6.62-.644 6.62l15.57-15.596-22.19.996s2.999.956 5.242 3.817a3.26 3.26 0 0 0-2.399.116 3.26 3.26 0 0 0-1.622 4.314z" style="fill:#ffe428;fill-opacity:1;stroke:none;stroke-width:.102631px;stroke-linecap:butt;stroke-linejoin:miter;stroke-opacity:1"/><path d="M11.338 35.126a3.26 3.26 0 0 0 1.855 4.22 3.26 3.26 0 0 0 2.56-.085c-2.055 3.255-5.185 4.166-5.185 4.166l22.036.235-16.22-15.173s1.411 2.812.933 6.417a3.26 3.26 0 0 0-1.76-1.635 3.26 3.26 0 0 0-4.219 1.855z" style="fill:#4e8201;fill-opacity:1;stroke:none;stroke-width:.102631px;stroke-linecap:butt;stroke-linejoin:miter;stroke-opacity:1"/><path d="m28.628 1.441-16.19 6.217c3.618 1.255 4.02 5.575 4.02 5.575 1.03-1.814 2.742-3.615 5.588-4.727 2.961-1.157 5.517-.947 7.53-.263 0 0-2.625-3.514-.948-6.802zm-6.08 8.346c-5.233 1.985-8.11 7.814-6.76 11.772l19.128 20.444.472-28.207c-2.143-4.343-7.608-5.993-12.84-4.009Z" style="fill:#a1301c;fill-opacity:1;stroke:none;stroke-width:.134977px;stroke-linecap:butt;stroke-linejoin:miter;stroke-opacity:1"/></svg>