<svg xmlns="http://www.w3.org/2000/svg" xml:space="preserve" width="256" height="256" viewBox="0 0 67.733 67.733"><path d="M55.178 33.539c-.268.155-.648.243-1.164.115-1.028-.254-.996.365-1.458.173-.5-.207-1.24-.106-2.01.645-.536.523-1.393.027-2.086.197-.946.231-1.17 1.888-1.636 1.893-.416.004.258-1.365.286-1.878.006-.113-.158-.464-.378-.78-1.113 1.116-2.423 2.428-4.144 4.15.185.133.431.265.607.423h.001c.09.074.16.172.2.282.266.86-1.084.898-1.054 2.052.027 1.034.857.43 1.295 1.294.407.803.618-.119 1.92.106.877.151.143.678.123.875-.026.272.805-.655 1.18.363.243.664 1.332.692 1.853 1.786.265.557.249 1.285.663 1.757.464.53 1.154.855 1.34 1.615.169.692-.491 1.157.146 1.952.355.445.607.635.882 1.175.19.373.888.786 1.611 1.84.75 1.094.575 1.521-.305 2.11-.75.501-1.543.251-2.241 1.289-.47.698-1.484 1.475-2.338 1.46-.828-.015-1.82-.582-2.48.088-.546.553-1.294.74-1.94 1.096-1.277.704-1.707-.068-1.905-.052-.203.016.13 1.015-1.19.984-.29-.007-.648-.13-.765.021-.382.501-.7.178-.865.268-.216.118-.075.324-.173.492-.305.52-1.124.704-1.122.976.004.891-.33.586-.943 1.385-.382.498.053 1.187.046 1.499-.012.464-1.357-.155-1.52-1.393-.084-.641.379-1.71.543-2.004.442-.791.904-2.054 1.246-2.889.316-.772.798-1.083 1.096-1.735.705-1.544 1.747-2.698 2.28-4.248.287-.834-.493-1.478-.758-2.2-.324-.88-.15-1.852-.154-2.776-.002-.64-.405-1.615.245-1.975.764-.424.172-.504.571-.97.48-.558 1.247-.565 1.84-.972.549-.376.779-1.093.74-1.726-.05-.81-.66.052-.966-.331-.466-.584-.361-1.09-.621-1.544-.18-.315.32-1.202.13-1.59-9.136 9.15-21.017 21.043-21.064 21.05 8.54 8.54 22.388 8.54 30.928 0 7.138-7.138 8.302-17.993 3.508-26.348zm-10.086 3.12c.223 0 .657.137.974.473.043.046.083.094.12.145.363.535.498 1.039.79 1.63.335.679-.517.38-.69-.05-.277-.696-.336-1.617-.9-1.846-.527-.214-.516-.352-.294-.352zm2.236 3.12c.044-.007.223.143.413.338.315.325.661.774.468.824-.344.087-1.624-.967-1.384-.919.616.121.257-.203.503-.243z" style="opacity:1;fill:#000;fill-opacity:1;stroke:none;stroke-width:1.31335;stroke-linecap:round;stroke-linejoin:round;stroke-dasharray:none;stroke-opacity:.216695;paint-order:stroke markers fill"/><path d="M47 19.283a3.26 3.26 0 0 0-4.289 1.692 3.26 3.26 0 0 0-.013 2.56c-3.174-2.178-3.964-5.34-3.964-5.34l-1.083 22.01L53.437 24.58s-2.865 1.303-6.448.686a3.26 3.26 0 0 0 1.702-1.695 3.26 3.26 0 0 0-1.692-4.288zM10.88 55.38a3.26 3.26 0 0 0 4.314 1.622 3.26 3.26 0 0 0 1.728-1.89c.892 3.744-.644 6.62-.644 6.62l15.57-15.596-22.19.996s2.999.956 5.242 3.817a3.26 3.26 0 0 0-2.399.116 3.26 3.26 0 0 0-1.622 4.314zM11.338 35.126a3.26 3.26 0 0 0 1.855 4.22 3.26 3.26 0 0 0 2.56-.085c-2.055 3.255-5.185 4.166-5.185 4.166l22.036.235-16.22-15.173s1.411 2.812.933 6.417a3.26 3.26 0 0 0-1.76-1.635 3.26 3.26 0 0 0-4.219 1.855z" style="fill:#000;fill-opacity:1;stroke:none;stroke-width:.102631px;stroke-linecap:butt;stroke-linejoin:miter;stroke-opacity:1"/><path d="m28.628 1.441-16.19 6.217c3.618 1.255 4.02 5.575 4.02 5.575 1.03-1.814 2.742-3.615 5.588-4.727 2.961-1.157 5.517-.947 7.53-.263 0 0-2.625-3.514-.948-6.802zm-6.08 8.346c-5.233 1.985-8.11 7.814-6.76 11.772l19.128 20.444.472-28.207c-2.143-4.343-7.608-5.993-12.84-4.009Z" style="fill:#000;fill-opacity:1;stroke:none;stroke-width:.134977px;stroke-linecap:butt;stroke-linejoin:miter;stroke-opacity:1"/></svg>