<svg xmlns="http://www.w3.org/2000/svg" xmlns:xlink="http://www.w3.org/1999/xlink" width="256" height="256"><defs><linearGradient id="p"><stop offset="0" style="stop-color:#fff;stop-opacity:1"/><stop offset=".5" style="stop-color:#fff;stop-opacity:.93050194"/><stop offset="1" style="stop-color:#fff;stop-opacity:0"/></linearGradient><linearGradient id="s"><stop offset="0" style="stop-color:#fff;stop-opacity:1"/><stop offset="1" style="stop-color:#fff;stop-opacity:0"/></linearGradient><linearGradient id="c"><stop offset="0" style="stop-color:#000;stop-opacity:1"/><stop offset="1" style="stop-color:#000;stop-opacity:0"/></linearGradient><linearGradient xlink:href="#a" id="ae" x1="94.25" x2="9" y1="-94.672" y2="-179.969" gradientUnits="userSpaceOnUse"/><linearGradient id="a"><stop offset="0" style="stop-color:#000;stop-opacity:1"/><stop offset="1" style="stop-color:#000;stop-opacity:0"/></linearGradient><linearGradient xlink:href="#a" id="af" x1="50.75" x2="35.75" y1="-114.438" y2="-30.438" gradientUnits="userSpaceOnUse"/><linearGradient xlink:href="#a" id="ag" x1="77.625" x2="115.25" y1="-163.125" y2="-74.625" gradientUnits="userSpaceOnUse"/><linearGradient xlink:href="#a" id="ah" x1="56.5" x2="125.719" y1="-50.438" y2="7.063" gradientUnits="userSpaceOnUse"/><linearGradient xlink:href="#a" id="ai" x1="35" x2="180.75" y1="-163.297" y2="-146.797" gradientUnits="userSpaceOnUse"/><linearGradient xlink:href="#a" id="aj" x1="57" x2="179" y1="-141.109" y2="-41.609" gradientUnits="userSpaceOnUse"/><linearGradient xlink:href="#a" id="ak" x1="156" x2="208.25" y1="-26.5" y2="39.75" gradientUnits="userSpaceOnUse"/><linearGradient xlink:href="#a" id="al" x1="142.75" x2="235" y1="-169.297" y2="-77.297" gradientUnits="userSpaceOnUse"/><linearGradient xlink:href="#b" id="W" x1="214.25" x2="166.5" y1="-161.359" y2="-113.719" gradientUnits="userSpaceOnUse"/><linearGradient id="b"><stop offset="0" style="stop-color:#fff;stop-opacity:1"/><stop offset="1" style="stop-color:#fff;stop-opacity:0"/></linearGradient><linearGradient xlink:href="#b" id="X" x1="53.25" x2="57.656" y1="-126.5" y2="-62.469" gradientUnits="userSpaceOnUse"/><linearGradient xlink:href="#b" id="Y" x1="39.5" x2="75.719" y1="6.625" y2="-17.125" gradientUnits="userSpaceOnUse"/><linearGradient xlink:href="#b" id="Z" x1="102" x2="85.313" y1="-162.344" y2="-121.438" gradientUnits="userSpaceOnUse"/><linearGradient xlink:href="#b" id="aa" x1="117.75" x2="63.5" y1="-78.094" y2="-14.75" gradientUnits="userSpaceOnUse"/><linearGradient xlink:href="#b" id="ab" x1="180.687" x2="133.937" y1="-125.125" y2="-60.75" gradientUnits="userSpaceOnUse"/><linearGradient xlink:href="#b" id="ac" x1="170.75" x2="130.219" y1="-23.5" y2="33.375" gradientUnits="userSpaceOnUse"/><linearGradient xlink:href="#b" id="ad" x1="213.5" x2="181.75" y1="-76" y2="-5.656" gradientUnits="userSpaceOnUse"/><linearGradient xlink:href="#c" id="V" x1="210.172" x2="9" y1="72.064" y2="-213.253" gradientTransform="translate(.138 1.993)" gradientUnits="userSpaceOnUse"/><linearGradient id="d"><stop offset="0" style="stop-color:#2d3335;stop-opacity:1"/><stop offset=".5" style="stop-color:#4c464a;stop-opacity:1"/><stop offset="1" style="stop-color:#384042;stop-opacity:1"/></linearGradient><linearGradient id="e"><stop offset="0" style="stop-color:#2d3335;stop-opacity:1"/><stop offset=".5" style="stop-color:#4c464a;stop-opacity:1"/><stop offset="1" style="stop-color:#384042;stop-opacity:1"/></linearGradient><linearGradient id="f"><stop offset="0" style="stop-color:#f9e295;stop-opacity:1"/><stop offset=".125" style="stop-color:#f7dd84;stop-opacity:1"/><stop offset=".206" style="stop-color:#fff;stop-opacity:1"/><stop offset=".301" style="stop-color:#f4ce51;stop-opacity:1"/><stop offset=".341" style="stop-color:#f9e7aa;stop-opacity:1"/><stop offset="1" style="stop-color:#efbb0e;stop-opacity:1"/></linearGradient><linearGradient id="g"><stop offset="0" style="stop-color:#f9e295;stop-opacity:1"/><stop offset=".125" style="stop-color:#f7dd84;stop-opacity:1"/><stop offset=".206" style="stop-color:#fff;stop-opacity:1"/><stop offset=".301" style="stop-color:#f4ce51;stop-opacity:1"/><stop offset=".341" style="stop-color:#f9e7aa;stop-opacity:1"/><stop offset="1" style="stop-color:#efbb0e;stop-opacity:1"/></linearGradient><linearGradient id="h"><stop offset="0" style="stop-color:#f9e295;stop-opacity:1"/><stop offset=".125" style="stop-color:#f7dd84;stop-opacity:1"/><stop offset=".206" style="stop-color:#fff;stop-opacity:1"/><stop offset=".301" style="stop-color:#f4ce51;stop-opacity:1"/><stop offset=".341" style="stop-color:#f9e7aa;stop-opacity:1"/><stop offset="1" style="stop-color:#efbb0e;stop-opacity:1"/></linearGradient><linearGradient id="i"><stop offset="0" style="stop-color:#f9e295;stop-opacity:1"/><stop offset=".125" style="stop-color:#f7dd84;stop-opacity:1"/><stop offset=".206" style="stop-color:#fff;stop-opacity:1"/><stop offset=".301" style="stop-color:#f4ce51;stop-opacity:1"/><stop offset=".341" style="stop-color:#f9e7aa;stop-opacity:1"/><stop offset="1" style="stop-color:#efbb0e;stop-opacity:1"/></linearGradient><linearGradient id="n"><stop offset="0" style="stop-color:#d0e9f2;stop-opacity:0"/><stop offset=".839" style="stop-color:#d0e9f2;stop-opacity:0"/><stop offset=".943" style="stop-color:#d0e9f2;stop-opacity:.28185329"/><stop offset="1" style="stop-color:#d0e9f2;stop-opacity:1"/></linearGradient><linearGradient id="m"><stop offset="0" style="stop-color:#2d3335;stop-opacity:1"/><stop offset=".5" style="stop-color:#4c464a;stop-opacity:1"/><stop offset="1" style="stop-color:#384042;stop-opacity:1"/></linearGradient><linearGradient id="l"><stop offset="0" style="stop-color:#f9e295;stop-opacity:1"/><stop offset=".125" style="stop-color:#f7dd84;stop-opacity:1"/><stop offset=".206" style="stop-color:#fff;stop-opacity:1"/><stop offset=".301" style="stop-color:#f4ce51;stop-opacity:1"/><stop offset=".341" style="stop-color:#f9e7aa;stop-opacity:1"/><stop offset="1" style="stop-color:#efbb0e;stop-opacity:1"/></linearGradient><linearGradient id="k"><stop offset="0" style="stop-color:#2d3335;stop-opacity:1"/><stop offset=".5" style="stop-color:#4c464a;stop-opacity:1"/><stop offset="1" style="stop-color:#384042;stop-opacity:1"/></linearGradient><linearGradient id="j"><stop offset="0" style="stop-color:#f9e295;stop-opacity:1"/><stop offset=".125" style="stop-color:#f7dd84;stop-opacity:1"/><stop offset=".206" style="stop-color:#fff;stop-opacity:1"/><stop offset=".301" style="stop-color:#f4ce51;stop-opacity:1"/><stop offset=".341" style="stop-color:#f9e7aa;stop-opacity:1"/><stop offset="1" style="stop-color:#efbb0e;stop-opacity:1"/></linearGradient><linearGradient xlink:href="#j" id="aI" x1="120" x2="136" y1="186.5" y2="186.5" gradientTransform="rotate(45 90.568 57.422) scale(1.39197)" gradientUnits="userSpaceOnUse"/><linearGradient xlink:href="#k" id="bb" x1="123" x2="133" y1="150.375" y2="150.375" gradientTransform="rotate(-135 335.338 -33.751) scale(2.78394 -2.46367)" gradientUnits="userSpaceOnUse"/><linearGradient xlink:href="#l" id="ba" x1="120" x2="136" y1="186.5" y2="186.5" gradientTransform="rotate(45 203.145 104.053) scale(1.39197)" gradientUnits="userSpaceOnUse"/><linearGradient xlink:href="#m" id="aZ" x1="123" x2="133" y1="150.375" y2="150.375" gradientTransform="scale(-1.39197 1.39197) rotate(-45 -17.94 383.771)" gradientUnits="userSpaceOnUse"/><linearGradient xlink:href="#m" id="aY" x1="128" x2="130.875" y1="134.359" y2="143.359" gradientTransform="rotate(45 203.145 104.053) scale(1.39197)" gradientUnits="userSpaceOnUse"/><linearGradient id="o"><stop offset="0" style="stop-color:#2d3335;stop-opacity:1"/><stop offset=".5" style="stop-color:#4c464a;stop-opacity:1"/><stop offset="1" style="stop-color:#384042;stop-opacity:1"/></linearGradient><linearGradient xlink:href="#c" id="bc" x1="108.003" x2="133" y1="167.727" y2="150.375" gradientTransform="rotate(-135 335.338 -33.751) scale(2.78394 -2.46367)" gradientUnits="userSpaceOnUse"/><linearGradient id="q"><stop offset="0" style="stop-color:#fff;stop-opacity:1"/><stop offset="1" style="stop-color:#fff;stop-opacity:0"/></linearGradient><linearGradient id="r"><stop offset="0" style="stop-color:#d0e9f2;stop-opacity:0"/><stop offset=".839" style="stop-color:#d0e9f2;stop-opacity:0"/><stop offset=".943" style="stop-color:#d0e9f2;stop-opacity:.28185329"/><stop offset="1" style="stop-color:#d0e9f2;stop-opacity:1"/></linearGradient><linearGradient xlink:href="#s" id="aH" x1="126.643" x2="179.961" y1="29.815" y2="137.196" gradientTransform="translate(.138 1.993)" gradientUnits="userSpaceOnUse"/><linearGradient id="t"><stop offset="0" style="stop-color:#fff;stop-opacity:1"/><stop offset="1" style="stop-color:#fff;stop-opacity:0"/></linearGradient><linearGradient id="u"><stop offset="0" style="stop-color:#fff;stop-opacity:1"/><stop offset="1" style="stop-color:#fff;stop-opacity:0"/></linearGradient><linearGradient id="v"><stop offset="0" style="stop-color:#fff;stop-opacity:1"/><stop offset="1" style="stop-color:#fff;stop-opacity:0"/></linearGradient><linearGradient id="w"><stop offset="0" style="stop-color:#fff;stop-opacity:1"/><stop offset="1" style="stop-color:#fff;stop-opacity:0"/></linearGradient><linearGradient id="x"><stop offset="0" style="stop-color:#fff;stop-opacity:1"/><stop offset=".5" style="stop-color:#fff;stop-opacity:.93050194"/><stop offset="1" style="stop-color:#fff;stop-opacity:0"/></linearGradient><linearGradient id="y"><stop offset="0" style="stop-color:#fff;stop-opacity:1"/><stop offset="1" style="stop-color:#fff;stop-opacity:0"/></linearGradient><linearGradient id="z"><stop offset="0" style="stop-color:#000;stop-opacity:1"/><stop offset="1" style="stop-color:#000;stop-opacity:0"/></linearGradient><linearGradient id="A"><stop offset="0" style="stop-color:#000;stop-opacity:1"/><stop offset="1" style="stop-color:#000;stop-opacity:0"/></linearGradient><linearGradient id="B"><stop offset="0" style="stop-color:#000;stop-opacity:1"/><stop offset="1" style="stop-color:#000;stop-opacity:0"/></linearGradient><linearGradient xlink:href="#C" id="aq" x1="210.172" x2="9" y1="72.064" y2="-213.253" gradientTransform="translate(0 192)" gradientUnits="userSpaceOnUse"/><linearGradient id="C"><stop offset="0" style="stop-color:#000;stop-opacity:1"/><stop offset="1" style="stop-color:#000;stop-opacity:0"/></linearGradient><linearGradient xlink:href="#D" id="ar" x1="214.25" x2="166.5" y1="-161.359" y2="-113.719" gradientUnits="userSpaceOnUse"/><linearGradient id="D"><stop offset="0" style="stop-color:#fff;stop-opacity:1"/><stop offset="1" style="stop-color:#fff;stop-opacity:0"/></linearGradient><linearGradient xlink:href="#D" id="as" x1="53.25" x2="57.656" y1="-126.5" y2="-62.469" gradientUnits="userSpaceOnUse"/><linearGradient xlink:href="#D" id="at" x1="39.5" x2="75.719" y1="6.625" y2="-17.125" gradientUnits="userSpaceOnUse"/><linearGradient xlink:href="#D" id="au" x1="102" x2="85.313" y1="-162.344" y2="-121.438" gradientUnits="userSpaceOnUse"/><linearGradient xlink:href="#D" id="av" x1="117.75" x2="63.5" y1="-78.094" y2="-14.75" gradientUnits="userSpaceOnUse"/><linearGradient xlink:href="#D" id="aw" x1="180.687" x2="133.937" y1="-125.125" y2="-60.75" gradientUnits="userSpaceOnUse"/><linearGradient xlink:href="#D" id="ax" x1="170.75" x2="130.219" y1="-23.5" y2="33.375" gradientUnits="userSpaceOnUse"/><linearGradient xlink:href="#D" id="ay" x1="213.5" x2="181.75" y1="-76" y2="-5.656" gradientUnits="userSpaceOnUse"/><linearGradient xlink:href="#E" id="az" x1="94.25" x2="9" y1="-94.672" y2="-179.969" gradientUnits="userSpaceOnUse"/><linearGradient id="E"><stop offset="0" style="stop-color:#000;stop-opacity:1"/><stop offset="1" style="stop-color:#000;stop-opacity:0"/></linearGradient><linearGradient xlink:href="#E" id="aA" x1="50.75" x2="35.75" y1="-114.438" y2="-30.438" gradientUnits="userSpaceOnUse"/><linearGradient xlink:href="#E" id="aB" x1="77.625" x2="115.25" y1="-163.125" y2="-74.625" gradientUnits="userSpaceOnUse"/><linearGradient xlink:href="#E" id="aC" x1="56.5" x2="125.719" y1="-50.438" y2="7.063" gradientUnits="userSpaceOnUse"/><linearGradient xlink:href="#E" id="aD" x1="35" x2="180.75" y1="-163.297" y2="-146.797" gradientUnits="userSpaceOnUse"/><linearGradient xlink:href="#E" id="aE" x1="57" x2="179" y1="-141.109" y2="-41.609" gradientUnits="userSpaceOnUse"/><linearGradient xlink:href="#E" id="aF" x1="156" x2="208.25" y1="-26.5" y2="39.75" gradientUnits="userSpaceOnUse"/><linearGradient xlink:href="#E" id="aG" x1="142.75" x2="235" y1="-169.297" y2="-77.297" gradientUnits="userSpaceOnUse"/><linearGradient id="F"><stop offset="0" style="stop-color:#d0e9f2;stop-opacity:0"/><stop offset=".839" style="stop-color:#d0e9f2;stop-opacity:0"/><stop offset=".943" style="stop-color:#d0e9f2;stop-opacity:.28185329"/><stop offset="1" style="stop-color:#d0e9f2;stop-opacity:1"/></linearGradient><linearGradient id="H"><stop offset="0" style="stop-color:#000;stop-opacity:1"/><stop offset="1" style="stop-color:#000;stop-opacity:0"/></linearGradient><linearGradient xlink:href="#B" id="I" x1="210.172" x2="9" y1="72.064" y2="-213.253" gradientTransform="matrix(1 -.08088 0 1 0 203.056)" gradientUnits="userSpaceOnUse"/><linearGradient id="J"><stop offset="0" style="stop-color:#eee"/><stop offset="1" style="stop-color:#eee;stop-opacity:0"/></linearGradient><linearGradient id="Q" x1="217.75" x2="231.18" y1="100.29" y2="515.5" gradientUnits="userSpaceOnUse"><stop offset="0" style="stop-color:#ededed"/><stop offset="1" style="stop-color:#cccccf"/></linearGradient><linearGradient id="R"><stop offset="0" style="stop-color:#eee"/><stop offset="1" style="stop-color:#eee;stop-opacity:0"/></linearGradient><linearGradient xlink:href="#Q" id="aJ" x1="217.75" x2="231.18" y1="100.29" y2="515.5" gradientUnits="userSpaceOnUse"/><clipPath id="T" clipPathUnits="userSpaceOnUse"><path d="M9 12.25s7.5 13 11.75 27.75S27 65.5 27 65.5s-5.5 12.75-8.25 24.75-5.75 23-5.75 23 5.75 16 9.25 30S26 167.5 26 167.5s-4 10.25-7.5 24.25-5 30.75-5 30.75 9.25-2 28.5 1.25 32.25 6 32.25 6 12.75-2.75 24-6.25 16.25-6.5 16.25-6.5 5.5.5 22.5 6.25 29.25 8.5 29.25 8.5 13-2.75 26-5.75 26.5-8 26.5-8-.75-5 4.25-24.5 8.75-28 8.75-28-.5-4.5-3.75-19.75S218 116 218 116s1.75-10.5 6.75-23.75S235 65.5 235 65.5s-4.75-15.25-7.5-29.75S219.25 10 219.25 10 195 19 187.5 20.5s-21 5.25-21 5.25-9.75-4.25-22-8.5-29.75-5.5-29.75-5.5-3.25 3.5-22 8-27.5 5.75-27.5 5.75-18.5-9-31.5-11.5-24-2-24.75-1.75z" style="fill:#ceeeab;fill-opacity:1;stroke:none"/></clipPath><clipPath id="U" clipPathUnits="userSpaceOnUse"><path d="M9 12.25s7.5 13 11.75 27.75S27 65.5 27 65.5s-5.5 12.75-8.25 24.75-5.75 23-5.75 23 5.75 16 9.25 30S26 167.5 26 167.5s-4 10.25-7.5 24.25-5 30.75-5 30.75 9.25-2 28.5 1.25 32.25 6 32.25 6 12.75-2.75 24-6.25 16.25-6.5 16.25-6.5 5.5.5 22.5 6.25 29.25 8.5 29.25 8.5 13-2.75 26-5.75 26.5-8 26.5-8-.75-5 4.25-24.5 8.75-28 8.75-28-.5-4.5-3.75-19.75S218 116 218 116s1.75-10.5 6.75-23.75S235 65.5 235 65.5s-4.75-15.25-7.5-29.75S219.25 10 219.25 10 195 19 187.5 20.5s-21 5.25-21 5.25-9.75-4.25-22-8.5-29.75-5.5-29.75-5.5-3.25 3.5-22 8-27.5 5.75-27.5 5.75-18.5-9-31.5-11.5-24-2-24.75-1.75z" style="fill:#ceeeab;fill-opacity:1;stroke:none"/></clipPath><clipPath id="S" clipPathUnits="userSpaceOnUse"><path d="M9 12.25s7.5 13 11.75 27.75S27 65.5 27 65.5s-5.5 12.75-8.25 24.75-5.75 23-5.75 23 5.75 16 9.25 30S26 167.5 26 167.5s-4 10.25-7.5 24.25-5 30.75-5 30.75 9.25-2 28.5 1.25 32.25 6 32.25 6 12.75-2.75 24-6.25 16.25-6.5 16.25-6.5 5.5.5 22.5 6.25 29.25 8.5 29.25 8.5 13-2.75 26-5.75 26.5-8 26.5-8-.75-5 4.25-24.5 8.75-28 8.75-28-.5-4.5-3.75-19.75S218 116 218 116s1.75-10.5 6.75-23.75S235 65.5 235 65.5s-4.75-15.25-7.5-29.75S219.25 10 219.25 10 195 19 187.5 20.5s-21 5.25-21 5.25-9.75-4.25-22-8.5-29.75-5.5-29.75-5.5-3.25 3.5-22 8-27.5 5.75-27.5 5.75-18.5-9-31.5-11.5-24-2-24.75-1.75z" style="fill:#ceeeab;fill-opacity:1;stroke:none"/></clipPath><clipPath id="an" clipPathUnits="userSpaceOnUse"><path d="M9 12.25s7.5 13 11.75 27.75S27 65.5 27 65.5s-5.5 12.75-8.25 24.75-5.75 23-5.75 23 5.75 16 9.25 30S26 167.5 26 167.5s-4 10.25-7.5 24.25-5 30.75-5 30.75 9.25-2 28.5 1.25 32.25 6 32.25 6 12.75-2.75 24-6.25 16.25-6.5 16.25-6.5 5.5.5 22.5 6.25 29.25 8.5 29.25 8.5 13-2.75 26-5.75 26.5-8 26.5-8-.75-5 4.25-24.5 8.75-28 8.75-28-.5-4.5-3.75-19.75S218 116 218 116s1.75-10.5 6.75-23.75S235 65.5 235 65.5s-4.75-15.25-7.5-29.75S219.25 10 219.25 10 195 19 187.5 20.5s-21 5.25-21 5.25-9.75-4.25-22-8.5-29.75-5.5-29.75-5.5-3.25 3.5-22 8-27.5 5.75-27.5 5.75-18.5-9-31.5-11.5-24-2-24.75-1.75z" style="fill:#ceeeab;fill-opacity:1;stroke:none"/></clipPath><clipPath id="ao" clipPathUnits="userSpaceOnUse"><path d="M9 12.25s7.5 13 11.75 27.75S27 65.5 27 65.5s-5.5 12.75-8.25 24.75-5.75 23-5.75 23 5.75 16 9.25 30S26 167.5 26 167.5s-4 10.25-7.5 24.25-5 30.75-5 30.75 9.25-2 28.5 1.25 32.25 6 32.25 6 12.75-2.75 24-6.25 16.25-6.5 16.25-6.5 5.5.5 22.5 6.25 29.25 8.5 29.25 8.5 13-2.75 26-5.75 26.5-8 26.5-8-.75-5 4.25-24.5 8.75-28 8.75-28-.5-4.5-3.75-19.75S218 116 218 116s1.75-10.5 6.75-23.75S235 65.5 235 65.5s-4.75-15.25-7.5-29.75S219.25 10 219.25 10 195 19 187.5 20.5s-21 5.25-21 5.25-9.75-4.25-22-8.5-29.75-5.5-29.75-5.5-3.25 3.5-22 8-27.5 5.75-27.5 5.75-18.5-9-31.5-11.5-24-2-24.75-1.75z" style="fill:#ceeeab;fill-opacity:1;stroke:none"/></clipPath><clipPath id="ap" clipPathUnits="userSpaceOnUse"><path d="M9 12.25s7.5 13 11.75 27.75S27 65.5 27 65.5s-5.5 12.75-8.25 24.75-5.75 23-5.75 23 5.75 16 9.25 30S26 167.5 26 167.5s-4 10.25-7.5 24.25-5 30.75-5 30.75 9.25-2 28.5 1.25 32.25 6 32.25 6 12.75-2.75 24-6.25 16.25-6.5 16.25-6.5 5.5.5 22.5 6.25 29.25 8.5 29.25 8.5 13-2.75 26-5.75 26.5-8 26.5-8-.75-5 4.25-24.5 8.75-28 8.75-28-.5-4.5-3.75-19.75S218 116 218 116s1.75-10.5 6.75-23.75S235 65.5 235 65.5s-4.75-15.25-7.5-29.75S219.25 10 219.25 10 195 19 187.5 20.5s-21 5.25-21 5.25-9.75-4.25-22-8.5-29.75-5.5-29.75-5.5-3.25 3.5-22 8-27.5 5.75-27.5 5.75-18.5-9-31.5-11.5-24-2-24.75-1.75z" style="fill:#ceeeab;fill-opacity:1;stroke:none"/></clipPath><clipPath id="am" clipPathUnits="userSpaceOnUse"><path d="M123.623 141.062c20.832 20.243 54.607 19.289 75.439-2.132 20.832-21.42 20.832-55.196 0-75.44-20.832-20.242-54.607-19.288-75.44 2.133-20.831 21.42-20.831 55.196 0 75.439z" style="fill:url(#G);fill-opacity:1;stroke:none"/></clipPath><clipPath id="aK" clipPathUnits="userSpaceOnUse"><path d="M470.9 299.52a239.72 239.72 0 1 1-479.44 0 239.72 239.72 0 1 1 479.44 0z" style="fill:#eee" transform="translate(-1390.6 -1801.7) scale(6.0152)"/></clipPath><path id="aR" d="M-15.75-22C-15.75-15-9-11.5 1-11.5s14.74-3.25 14.75-7.75c0-14.25-46.75-5.25-46.5-30.25C-30.5-71-6-70 3-70s26 4 25.75 21.25H13.5c0-7.5-7-10.25-15-10.25-7.75 0-13.25 1.25-13.25 8.5-.25 11.75 46.25 4 46.25 28.75C31.5-3.5 13.5 0 0 0c-11.5 0-31.55-4.5-31.5-22z"/><path id="P" d="M-31.5 0h13v-26h28a22 22 0 0 0 0-44h-40zm13-39h27a9 9 0 0 0 0-18h-27z" style="fill-rule:evenodd"/><path id="aP" d="M-26.25 0h52.5v-12h-40.5v-16h33v-12h-33v-11H25v-12h-51.25z"/><path id="aO" d="M-31.5 0h12v-48l14 48h11l14-48V0h12v-70H14L0-22l-14-48h-17.5z"/><path id="aN" d="M0 0h63v-13H12v-18h40v-12H12v-14h48v-13H0z" transform="translate(-31.5)"/><path id="aM" d="M-31.5 0h33a30 30 0 0 0 30-30v-10a30 30 0 0 0-30-30h-33zm13-13h19a19 19 0 0 0 19-19v-6a19 19 0 0 0-19-19h-19z" style="fill-rule:evenodd"/><path id="N" d="M0 0a31.5 35 0 0 0 0-70A31.5 35 0 0 0 0 0m0-13a18.5 22 0 0 0 0-44 18.5 22 0 0 0 0 44" style="fill-rule:evenodd"/><use xlink:href="#K" id="aW" width="4200" height="2940" x="0" y="0" transform="scale(10.5)"/><use xlink:href="#K" id="aU" width="4200" height="2940" x="0" y="0" transform="scale(15)"/><use xlink:href="#K" id="aT" width="4200" height="2940" x="0" y="0" transform="scale(21)"/><use xlink:href="#K" id="aV" width="4200" height="2940" x="0" y="0" transform="scale(26.25)"/><use xlink:href="#K" id="aS" width="4200" height="2940" x="0" y="0" transform="scale(31.5)"/><g id="K"><g id="M"><path id="L" d="M.5 1 0 0v1z" transform="rotate(18 3.157 -.5)"/><use xlink:href="#L" width="4200" height="2940" transform="scale(-1 1)"/></g><use xlink:href="#M" width="4200" height="2940" transform="rotate(72.001)"/><use xlink:href="#M" width="4200" height="2940" transform="rotate(-72.001)"/><use xlink:href="#M" width="4200" height="2940" transform="rotate(144)"/><use xlink:href="#M" width="4200" height="2940" transform="rotate(216)"/></g><g id="aQ"><clipPath id="O"><path d="M-31.5 0v-70h63V0zM0-47v12h31.5v-12z"/></clipPath><use xlink:href="#N" width="4200" height="2940" clip-path="url(#O)"/><path d="M5-35h26.5v10H5z"/><path d="M21.5-35h10V0h-10z"/></g><g id="aL"><use xlink:href="#P" width="4200" height="2940"/><path d="M28 0c0-10 0-32-15-32H-6c22 0 22 22 22 32"/></g><radialGradient xlink:href="#n" id="aX" cx="128" cy="86" r="47" fx="128" fy="86" gradientTransform="scale(1.42159 -1.42159) rotate(-45 -59.917 14.892)" gradientUnits="userSpaceOnUse"/><radialGradient xlink:href="#F" id="G" cx="128" cy="86" r="47" fx="128" fy="86" gradientTransform="matrix(.80254 .77986 .80254 -.82522 -10.402 73.423)" gradientUnits="userSpaceOnUse"/></defs><g style="display:inline"><path d="M9.138 14.243s7.5 13 11.75 27.75 6.25 25.5 6.25 25.5-5.5 12.75-8.25 24.75-5.75 23-5.75 23 5.75 16 9.25 30 3.75 24.25 3.75 24.25-4 10.25-7.5 24.25-5 30.75-5 30.75 9.25-2 28.5 1.25 32.25 6 32.25 6 12.75-2.75 24-6.25 16.25-6.5 16.25-6.5 5.5.5 22.5 6.25 29.25 8.5 29.25 8.5 13-2.75 26-5.75 26.5-8 26.5-8-.75-5 4.25-24.5 8.75-28 8.75-28-.5-4.5-3.75-19.75-10-29.75-10-29.75 1.75-10.5 6.75-23.75 10.25-26.75 10.25-26.75-4.75-15.25-7.5-29.75-8.25-25.75-8.25-25.75-24.25 9-31.75 10.5-21 5.25-21 5.25-9.75-4.25-22-8.5-29.75-5.5-29.75-5.5-3.25 3.5-22 8-27.5 5.75-27.5 5.75-18.5-9-31.5-11.5-24-2-24.75-1.75z" style="fill:#ceeeab;fill-opacity:1;stroke:none"/><g clip-path="url(#S)" transform="translate(.138 1.993)"><path d="m110.75 5.5-4.25 7c-.75 9-2.25 13.75-8.5 16.5s-12.25 3.5-11 7.5 13 9.25 14.25 13 8.25 1.75 11 7 2 15.25-3.75 17.25-17.5.5-20.25 9.5-4.75 10.5-9 12.75-7.25 10.5-3.5 16.5 12.25-1.25 15-6.5S98 97.25 98 97.25h23.75l59-1.75 3.25-3.75s3.25 4 2.75 8.75-3.75 14.75.25 17.25 19.5-2 24-7-4.75-28.25-10.5-29.5-18.5-1.75-17-7 11.75 4.5 17.25 3.25 16.75-21 12-25.25-24.25-5.25-25.75-8 21-8 22.25-11-2.5-7.25-6.25-8.5S189 41 182 40.5s-20 5.75-17.25 11.5-6 11-14.5 6.5-24.75-13-21.75-24S150 15.75 150 15.75zM97.187 112.719c-1.594.146-4.468 4.687-4.937 7.031-.5 2.5-3.25 6.75-3.5 12.25s4.75 6.75 8.75 6.5 2.75-6.75 2-15c-.25 0-.5-10.25-2-10.75-.094-.031-.206-.041-.313-.031zm92.72 51.656c-6.336.295-6.626 7.469-7.407 8.875-1.25 2.25 2.25 13.75 2 18s-4.75 5.25-9.5 9.75.5 16 11.25 31l44.75 1.25-1-35s4.75-4.25-20.75-24.25c-9.563-7.5-15.542-9.802-19.344-9.625zm-149.97 16.531c-4.029-.102-8.28 5.719-9.687 7.594-1.5 2-6.25 5-17 9.5l-14.5 34.25 53 4.25s1.75-11-4.25-15.75S30.25 215 29.25 207.5s9.25-10 13.75-14.25S45 182 40.75 181a4.015 4.015 0 0 0-.813-.094z" style="fill:#a6dd8b;fill-opacity:1;stroke:none"/></g><path d="M158.669 87.336c-4.76-.014-9.031.97-11.531 3.157-8 7-35 .75-48.5 7s-13.25 38-14.75 44.5-17.5 20.75-20 23.5-13.25 7.25-19.5 8.5-12.75 7.25-15.5 11c-2.021 2.756-7.406 6.45-10.125 8.218-.046.182-.08.35-.125.532-.134.534-.247 1.083-.375 1.625 4.98-1.605 11.18-8.18 16.625-13.625 6.25-6.25 20-7.75 27.75-11.5s14.25-19.75 26.5-23.75 21.25 11.75 24.25 18.5 1.75 12.75 3.75 17 11 11.75 11.5 13.5-5 6.5-6.25 8.5-10.5 7-11.75 8.75c-.966 1.352-1.923 6.773-2.313 9.218.413-.169.754-.31 1.125-.468.484-2.53 1.516-7.078 2.938-8.5 2-2 11.25-4.5 12.5-8.5s7-6.5 7-6.5 2.75 4 16 14c8.833 6.666 12.758 15.533 14.406 20.718.674.171 1.533.41 2.031.532-1.22-4.319-4.836-16.24-8.937-20.75-5-5.5-18.5-10.75-22.75-22s-24.5-34.25-17.5-40.25 16.5-4 28.5 7.5 46.25 5.75 57.75 3.75c9.954-1.732 20.834 14.883 23.906 26.03a303.703 303.703 0 0 1 1.656-5.75c-1.738-1.925-3.697-4.619-5.312-8.28-3.75-8.5-12-13.25-12-13.25s8.75-5 14.75-7.75a18.926 18.926 0 0 0 4.187-2.657c-.162-.774-.259-1.255-.437-2.093l-.094-.438c-4.766 5.563-19.232 9.615-21.656 10.938-2.75 1.5-18.25 3-35.75 4.5s-26.75-7.5-34.25-14.75-13-36-3-38 20 13.75 30 17 21.5-15.75 19.75-27c-1.203-7.735-13.997-12.625-24.469-12.657zm-53.344 13.282c1.276 0 5.86 1.593 6.563 2.375 2.25 2.5 2 7.25 0 8s-12.75 8-10.5 14.25 1.75 18-3.5 18-8 0-10-2.5-2-12 0-19.75 3.5-15 8-18.25c3.094-2.235 6.632-2.129 9.437-2.125zm13.594 73.093c.203.014 1.906 3.516 4.719 7.032 3 3.75 3.25 8.25 3.25 8.25s-4.25-4.75-6-8-2-7.25-2-7.25c0-.032.018-.033.031-.032z" style="fill:#aac3e7;fill-opacity:1;stroke:none"/><path d="M122.888 74.243c6.25.5 12.25-2.25 10.75-6.5s-12.5-7.25-13.25-3 2 10.5 2.5 9.5zM108.888 58.743c-8.5-5.5-8.5-7.25-7-8s10.25 5 12.75 8-2.25 2-5.75 0z" style="opacity:.386957;fill:none;stroke:#6d7f42;stroke-width:1;stroke-linecap:round;stroke-linejoin:round;stroke-miterlimit:4;stroke-dasharray:none;stroke-opacity:1"/><g clip-path="url(#T)" transform="translate(.138 1.993)"><path d="M15.75 151.25c33-2.5 38.25-3.5 36.25-10.25s-8.75-23.5-23-22.5-22.75-6.75-22.75-6.75" style="opacity:.386957;fill:none;stroke:#6d7f42;stroke-width:1;stroke-linecap:round;stroke-linejoin:round;stroke-miterlimit:4;stroke-dasharray:none;stroke-opacity:1"/><path d="M17.5 177.25c18.25-10 28.75-8.5 35-11.5s13.25-5.75 15.75-9.5 5.75-11.5 5.75-18-3.5-36 3.25-43.5 17.25-26 26-23.25 12.25 9.75 22 9.5S147 77 149.5 68.75s-15.75-16-16-23 5.5-14.25 20.25-17 23.5-11.5 23.5-11.5" style="opacity:.386957;fill:none;stroke:#6d7f42;stroke-opacity:1"/><path d="M14.5 161c15.25-1.5 22.25 3.5 31.5 1.75s13.25-3 17.75-5.75 6-3.75 6.25-6.5 1-12.5-3-22S54.5 97 58.75 89.75 64 68.25 74.5 65.25 95.5 59 102.25 64s12.75 14.25 20 14.5S134 77 136.75 74s4.5-10.25 1.75-13.75-15.5-5.5-17.25-9.5-10.75-17-.25-26.75 36.25-8.25 36.25-8.25" style="opacity:.386957;fill:none;stroke:#6d7f42;stroke-width:1;stroke-linecap:round;stroke-linejoin:round;stroke-miterlimit:4;stroke-dasharray:none;stroke-opacity:1"/><path d="M21.25 159c13.75 1 21.5 4.25 33.5-.5s13.5-5.25 13.75-8.75-.25-15.75-3-20-13-13.75-15.75-24.25.25-41 8.5-48.25 32-7.25 37.5-10.5 5.25-16.75 13-24.5 27-12.25 27-12.25M190 18.5c11.75 5 39 9.75 47.25 40.25M9.75 214c19-12.5 36-1.25 49-4s38.25-37.25 46-37 5.5-11.75 8.5-13.25 5.5 6 11.75 8 24.5-2.75 23.5-5.75-7-7.75-5.5-8.5 8.5 5 12.75 3.5 43.75-1 48.5-13.5 21.5-13.5 21.5-13.5M77.5 233.5c13.5-11.5 23.25-25 28.5-27s12.75-3.75 15.75-8 2.5-10.75 5.25-12 3.75 5.75 8.75 6 36.75-5 42.75-11.75 32.25-12.5 32.5-14.5-1-4.75.25-5.5 24.75-6 24.75-6M168.75 236c9-13.75 20.5-41 29.5-42s10.25-2.5 12.5-4.25 17 2.25 17 2.25" style="opacity:.386957;fill:none;stroke:#6d7f42;stroke-width:1;stroke-linecap:round;stroke-linejoin:round;stroke-miterlimit:4;stroke-dasharray:none;stroke-opacity:1"/></g><g clip-path="url(#U)" transform="translate(.138 1.993)"><path d="m57.75 20-8.5 28.25 18 6.25L75 90.75 54 113l9 10.5L51 135l.5 4.5L71.75 164l14-6.75 20.5 18.5L95.75 204l10.25 8.5-2.75 13" style="fill:none;stroke:#d38484;stroke-width:2;stroke-linecap:round;stroke-linejoin:miter;stroke-miterlimit:4;stroke-dasharray:none;stroke-opacity:1"/><path d="m105.75 212.25 12.5-27.75 11-7 27.5 15.75 20.5-3.75-.25-15.75-10.25-6 12.75-26.25 5.75-3.75 38.75-10" style="fill:none;stroke:#d38484;stroke-width:2;stroke-linecap:round;stroke-linejoin:miter;stroke-miterlimit:4;stroke-dasharray:none;stroke-opacity:1"/></g></g><g style="display:inline"><path d="M9.138-177.757s7.5 13 11.75 27.75 6.25 25.5 6.25 25.5-5.5 12.75-8.25 24.75-5.75 23-5.75 23 5.75 16 9.25 30 3.75 24.25 3.75 24.25-4 10.25-7.5 24.25-5 30.75-5 30.75 9.25-2 28.5 1.25 32.25 6 32.25 6 12.75-2.75 24-6.25 16.25-6.5 16.25-6.5 5.5.5 22.5 6.25 29.25 8.5 29.25 8.5 13-2.75 26-5.75 26.5-8 26.5-8-.75-5 4.25-24.5 8.75-28 8.75-28-.5-4.5-3.75-19.75-10-29.75-10-29.75 1.75-10.5 6.75-23.75 10.25-26.75 10.25-26.75-4.75-15.25-7.5-29.75-8.25-25.75-8.25-25.75-24.25 9-31.75 10.5-21 5.25-21 5.25-9.75-4.25-22-8.5-29.75-5.5-29.75-5.5-3.25 3.5-22 8-27.5 5.75-27.5 5.75-18.5-9-31.5-11.5-24-2-24.75-1.75z" style="opacity:.0391304;fill:url(#V);fill-opacity:1;stroke:none" transform="translate(0 192)"/></g><g style="display:inline"><g style="opacity:.269566"><path d="M219.25-182s-24.25 9-31.75 10.5-21 5.25-21 5.25c4.924-1.358 11.437 45.392 14.25 52.25l-.063.281c11.808-4.074 51.211-4.767 54.313-12.781 0 0-4.75-15.25-7.5-29.75S219.25-182 219.25-182z" style="fill:url(#W);fill-opacity:1;stroke:none" transform="translate(.138 193.993)"/><path d="M27-126.5s-5.5 12.75-8.25 24.75-5.75 23-5.75 23l50.625 16.281 15.781-58.906z" style="fill:url(#X);fill-opacity:1;stroke:none" transform="translate(.138 193.993)"/><path d="M26-24.5S22-14.25 18.5-.25s-5 30.75-5 30.75.147-.045.438-.094c2.033-.338 11.218-1.5 28.062 1.344 19.25 3.25 32.25 6 32.25 6l1.469-52.5-.75.125z" style="fill:url(#Y);fill-opacity:1;stroke:none" transform="translate(.138 193.993)"/><path d="M114.75-180.25s-3.25 3.5-22 8-27.5 5.75-27.5 5.75c5.182 14.704 12.03 29.27 14.25 44.75l-.094.313 48.031-3.938 1.126.25c-3.363-13.323-7.797-54.592-13.813-55.125z" style="fill:url(#Z);fill-opacity:1;stroke:none" transform="translate(.138 193.993)"/><path d="M117.594-78.094 63.969-62.375l-.344-.094L63.5-62l12.25 46.5-.031.75 49.469-8.875.53.188.032-.063-8.25-54.25.094-.344z" style="fill:url(#aa);fill-opacity:1;stroke:none" transform="translate(.138 193.993)"/><path d="M128.563-125.125c.234.928.463 1.742.687 2.375l-11.656 44.656.093-.031L169.5-60.75l11.187-52.969c-.356.123-.695.246-1 .375l-51.125-11.781z" style="fill:url(#ab);fill-opacity:1;stroke:none" transform="translate(.138 193.993)"/><path d="M125.531-23.5 114.5 25s5.5.5 22.5 6.25c2.125.719 4.163 1.406 6.125 2.031 1.962.626 3.855 1.186 5.625 1.719 10.617 3.2 17.5 4.75 17.5 4.75l12.719-45.406c-.513.182-1.019.38-1.531.562z" style="fill:url(#ac);fill-opacity:1;stroke:none" transform="translate(.138 193.993)"/><path d="M218-76c-15.666 6.288-31.698 11.15-48.063 15.406l-.437-.156 9.5 55-.031.094c17.839-6.36 35.381-13.387 52.781-20.844 0 0-.5-4.5-3.75-19.75S218-76 218-76Z" style="fill:url(#ad);fill-opacity:1;stroke:none" transform="translate(.138 193.993)"/></g><g style="opacity:.0434783"><path d="M13.719-179.969a58.605 58.605 0 0 0-2.719.063c-.445.018-.855.039-1.156.062-.03.002-.066-.002-.094 0-.398.033-.656.063-.75.094 0 0 7.5 13 11.75 27.75S27-126.5 27-126.5l51.469 5.125.937-.063.094-.312c-2.22-15.48-9.068-30.046-14.25-44.75 0 0-18.5-9-31.5-11.5-1.018-.196-2.01-.37-3-.531-.596-.097-1.167-.197-1.75-.281-.237-.035-.453-.062-.688-.094-1.306-.182-2.588-.34-3.812-.469-.735-.077-1.395-.128-2.094-.187a114.157 114.157 0 0 0-4.781-.313 96.716 96.716 0 0 0-3.906-.094z" style="fill:url(#ae);fill-opacity:1;stroke:none" transform="translate(.138 193.993)"/><path d="M13-78.75s5.75 16 9.25 30S26-24.5 26-24.5l48.969 9.875.75-.125.031-.75L63.5-62l.125-.469z" style="fill:url(#af);fill-opacity:1;stroke:none" transform="translate(.138 193.993)"/><path d="m127.438-125.375-47.97 4h-.062L63.625-62.469l.344.094 53.625-15.719 11.656-44.656c-.224-.633-.453-1.447-.688-2.375z" style="fill:url(#ag);fill-opacity:1;stroke:none" transform="translate(.138 193.993)"/><path d="m125.188-23.625-49.47 8.875-1.468 52.5S87 35 98.25 31.5 114.5 25 114.5 25l11.219-48.438z" style="fill:url(#ah);fill-opacity:1;stroke:none" transform="translate(.138 193.993)"/><path d="M114.75-180.25c6.016.533 10.45 41.802 13.813 55.125l51.125 11.781c.304-.13.643-.252 1-.375l.062-.281c-2.813-6.858-9.326-53.608-14.25-52.25 0 0-.613-.254-1.719-.719a350.283 350.283 0 0 0-20.281-7.781c-12.25-4.25-29.75-5.5-29.75-5.5z" style="fill:url(#ai);fill-opacity:1;stroke:none" transform="translate(.138 193.993)"/><path d="m117.688-78.125-.094.031-.094.344 8.25 53.25-.219 1 51.907 18.406c.512-.181 1.019-.38 1.53-.562L179-5.75l-9.5-55z" style="fill:url(#aj);fill-opacity:1;stroke:none" transform="translate(.138 193.993)"/><path d="M231.75-26.5c-17.4 7.457-34.942 14.484-52.781 20.844L166.25 39.75s13-2.75 26-5.75 26.5-8 26.5-8S218 21 223 1.5s8.75-28 8.75-28z" style="fill:url(#ak);fill-opacity:1;stroke:none" transform="translate(.138 193.993)"/><path d="M235-126.5c-3.102 8.014-42.505 8.707-54.313 12.781L169.5-60.75l.438.156C186.302-64.85 202.334-69.712 218-76c0 0 1.75-10.5 6.75-23.75S235-126.5 235-126.5z" style="fill:url(#al);fill-opacity:1;stroke:none" transform="translate(.138 193.993)"/></g></g><g clip-path="url(#am)" style="display:inline" transform="matrix(1.25254 .0354 0 1.25254 -27.672 -36.351)"><path d="M9 12.25s7.5 13 11.75 27.75S27 65.5 27 65.5s-5.5 12.75-8.25 24.75-5.75 23-5.75 23 5.75 16 9.25 30S26 167.5 26 167.5s-4 10.25-7.5 24.25-5 30.75-5 30.75 9.25-2 28.5 1.25 32.25 6 32.25 6 12.75-2.75 24-6.25 16.25-6.5 16.25-6.5 5.5.5 22.5 6.25 29.25 8.5 29.25 8.5 13-2.75 26-5.75 26.5-8 26.5-8-.75-5 4.25-24.5 8.75-28 8.75-28-.5-4.5-3.75-19.75S218 116 218 116s1.75-10.5 6.75-23.75S235 65.5 235 65.5s-4.75-15.25-7.5-29.75S219.25 10 219.25 10 195 19 187.5 20.5s-21 5.25-21 5.25-9.75-4.25-22-8.5-29.75-5.5-29.75-5.5-3.25 3.5-22 8-27.5 5.75-27.5 5.75-18.5-9-31.5-11.5-24-2-24.75-1.75z" style="fill:#ceeeab;fill-opacity:1;stroke:none"/><g clip-path="url(#an)"><path d="m110.75 5.5-4.25 7c-.75 9-2.25 13.75-8.5 16.5s-12.25 3.5-11 7.5 13 9.25 14.25 13 8.25 1.75 11 7 2 15.25-3.75 17.25-17.5.5-20.25 9.5-4.75 10.5-9 12.75-7.25 10.5-3.5 16.5 12.25-1.25 15-6.5S98 97.25 98 97.25h23.75l59-1.75 3.25-3.75s3.25 4 2.75 8.75-3.75 14.75.25 17.25 19.5-2 24-7-4.75-28.25-10.5-29.5-18.5-1.75-17-7 11.75 4.5 17.25 3.25 16.75-21 12-25.25-24.25-5.25-25.75-8 21-8 22.25-11-2.5-7.25-6.25-8.5S189 41 182 40.5s-20 5.75-17.25 11.5-6 11-14.5 6.5-24.75-13-21.75-24S150 15.75 150 15.75zM97.187 112.719c-1.594.146-4.468 4.687-4.937 7.031-.5 2.5-3.25 6.75-3.5 12.25s4.75 6.75 8.75 6.5 2.75-6.75 2-15c-.25 0-.5-10.25-2-10.75-.094-.031-.206-.041-.313-.031zm92.72 51.656c-6.336.295-6.626 7.469-7.407 8.875-1.25 2.25 2.25 13.75 2 18s-4.75 5.25-9.5 9.75.5 16 11.25 31l44.75 1.25-1-35s4.75-4.25-20.75-24.25c-9.563-7.5-15.542-9.802-19.344-9.625zm-149.97 16.531c-4.029-.102-8.28 5.719-9.687 7.594-1.5 2-6.25 5-17 9.5l-14.5 34.25 53 4.25s1.75-11-4.25-15.75S30.25 215 29.25 207.5s9.25-10 13.75-14.25S45 182 40.75 181a4.015 4.015 0 0 0-.813-.094z" style="fill:#a6dd8b;fill-opacity:1;stroke:none"/></g><path d="M158.531 85.344c-4.76-.015-9.031.969-11.531 3.156-8 7-35 .75-48.5 7s-13.25 38-14.75 44.5-17.5 20.75-20 23.5-13.25 7.25-19.5 8.5-12.75 7.25-15.5 11c-2.021 2.756-7.406 6.45-10.125 8.219-.046.181-.08.348-.125.531-.134.535-.247 1.083-.375 1.625 4.98-1.605 11.18-8.18 16.625-13.625 6.25-6.25 20-7.75 27.75-11.5S76.75 148.5 89 144.5s21.25 11.75 24.25 18.5 1.75 12.75 3.75 17 11 11.75 11.5 13.5-5 6.5-6.25 8.5-10.5 7-11.75 8.75c-.966 1.352-1.923 6.773-2.313 9.219.414-.17.755-.31 1.126-.469.483-2.53 1.515-7.078 2.937-8.5 2-2 11.25-4.5 12.5-8.5s7-6.5 7-6.5 2.75 4 16 14c8.833 6.667 12.758 15.534 14.406 20.719.674.17 1.533.41 2.031.531-1.22-4.319-4.836-16.239-8.937-20.75-5-5.5-18.5-10.75-22.75-22S108 154.25 115 148.25s16.5-4 28.5 7.5 46.25 5.75 57.75 3.75c9.955-1.731 20.834 14.883 23.906 26.031a303.703 303.703 0 0 1 1.656-5.75c-1.738-1.926-3.697-4.62-5.312-8.281-3.75-8.5-12-13.25-12-13.25s8.75-5 14.75-7.75a18.926 18.926 0 0 0 4.188-2.656c-.163-.774-.26-1.256-.438-2.094l-.094-.438c-4.765 5.563-19.232 9.616-21.656 10.938-2.75 1.5-18.25 3-35.75 4.5s-26.75-7.5-34.25-14.75-13-36-3-38 20 13.75 30 17 21.5-15.75 19.75-27c-1.203-7.734-13.997-12.625-24.469-12.656Zm-53.344 13.281c1.276.002 5.86 1.594 6.563 2.375 2.25 2.5 2 7.25 0 8s-12.75 8-10.5 14.25 1.75 18-3.5 18-8 0-10-2.5-2-12 0-19.75 3.5-15 8-18.25c3.094-2.234 6.632-2.128 9.438-2.125zm13.594 73.094c.203.013 1.906 3.515 4.719 7.031 3 3.75 3.25 8.25 3.25 8.25s-4.25-4.75-6-8-2-7.25-2-7.25c0-.031.018-.032.031-.031z" style="fill:#aac3e7;fill-opacity:1;stroke:none"/><path d="M122.75 72.25c6.25.5 12.25-2.25 10.75-6.5s-12.5-7.25-13.25-3 2 10.5 2.5 9.5zM108.75 56.75c-8.5-5.5-8.5-7.25-7-8s10.25 5 12.75 8-2.25 2-5.75 0z" style="opacity:.386957;fill:none;stroke:#6d7f42;stroke-width:1;stroke-linecap:round;stroke-linejoin:round;stroke-miterlimit:4;stroke-dasharray:none;stroke-opacity:1"/><g clip-path="url(#ao)"><path d="M15.75 151.25c33-2.5 38.25-3.5 36.25-10.25s-8.75-23.5-23-22.5-22.75-6.75-22.75-6.75" style="opacity:.386957;fill:none;stroke:#6d7f42;stroke-width:1;stroke-linecap:round;stroke-linejoin:round;stroke-miterlimit:4;stroke-dasharray:none;stroke-opacity:1"/><path d="M17.5 177.25c18.25-10 28.75-8.5 35-11.5s13.25-5.75 15.75-9.5 5.75-11.5 5.75-18-3.5-36 3.25-43.5 17.25-26 26-23.25 12.25 9.75 22 9.5S147 77 149.5 68.75s-15.75-16-16-23 5.5-14.25 20.25-17 23.5-11.5 23.5-11.5" style="opacity:.386957;fill:none;stroke:#6d7f42;stroke-opacity:1"/><path d="M14.5 161c15.25-1.5 22.25 3.5 31.5 1.75s13.25-3 17.75-5.75 6-3.75 6.25-6.5 1-12.5-3-22S54.5 97 58.75 89.75 64 68.25 74.5 65.25 95.5 59 102.25 64s12.75 14.25 20 14.5S134 77 136.75 74s4.5-10.25 1.75-13.75-15.5-5.5-17.25-9.5-10.75-17-.25-26.75 36.25-8.25 36.25-8.25" style="opacity:.386957;fill:none;stroke:#6d7f42;stroke-width:1;stroke-linecap:round;stroke-linejoin:round;stroke-miterlimit:4;stroke-dasharray:none;stroke-opacity:1"/><path d="M21.25 159c13.75 1 21.5 4.25 33.5-.5s13.5-5.25 13.75-8.75-.25-15.75-3-20-13-13.75-15.75-24.25.25-41 8.5-48.25 32-7.25 37.5-10.5 5.25-16.75 13-24.5 27-12.25 27-12.25M190 18.5c11.75 5 39 9.75 47.25 40.25M9.75 214c19-12.5 36-1.25 49-4s38.25-37.25 46-37 5.5-11.75 8.5-13.25 5.5 6 11.75 8 24.5-2.75 23.5-5.75-7-7.75-5.5-8.5 8.5 5 12.75 3.5 43.75-1 48.5-13.5 21.5-13.5 21.5-13.5M77.5 233.5c13.5-11.5 23.25-25 28.5-27s12.75-3.75 15.75-8 2.5-10.75 5.25-12 3.75 5.75 8.75 6 36.75-5 42.75-11.75 32.25-12.5 32.5-14.5-1-4.75.25-5.5 24.75-6 24.75-6M168.75 236c9-13.75 20.5-41 29.5-42s10.25-2.5 12.5-4.25 17 2.25 17 2.25" style="opacity:.386957;fill:none;stroke:#6d7f42;stroke-width:1;stroke-linecap:round;stroke-linejoin:round;stroke-miterlimit:4;stroke-dasharray:none;stroke-opacity:1"/></g><g clip-path="url(#ap)"><path d="m57.75 20-8.5 28.25 18 6.25L75 90.75 54 113l9 10.5L51 135l.5 4.5L71.75 164l14-6.75 20.5 18.5L95.75 204l10.25 8.5-2.75 13" style="fill:none;stroke:#d38484;stroke-width:2;stroke-linecap:round;stroke-linejoin:miter;stroke-miterlimit:4;stroke-dasharray:none;stroke-opacity:1"/><path d="m105.75 212.25 12.5-27.75 11-7 27.5 15.75 20.5-3.75-.25-15.75-10.25-6 12.75-26.25 5.75-3.75 38.75-10" style="fill:none;stroke:#d38484;stroke-width:2;stroke-linecap:round;stroke-linejoin:miter;stroke-miterlimit:4;stroke-dasharray:none;stroke-opacity:1"/></g><path d="M9 12.25s7.5 13 11.75 27.75S27 65.5 27 65.5s-5.5 12.75-8.25 24.75-5.75 23-5.75 23 5.75 16 9.25 30S26 167.5 26 167.5s-4 10.25-7.5 24.25-5 30.75-5 30.75 9.25-2 28.5 1.25 32.25 6 32.25 6 12.75-2.75 24-6.25 16.25-6.5 16.25-6.5 5.5.5 22.5 6.25 29.25 8.5 29.25 8.5 13-2.75 26-5.75 26.5-8 26.5-8-.75-5 4.25-24.5 8.75-28 8.75-28-.5-4.5-3.75-19.75S218 116 218 116s1.75-10.5 6.75-23.75S235 65.5 235 65.5s-4.75-15.25-7.5-29.75S219.25 10 219.25 10 195 19 187.5 20.5s-21 5.25-21 5.25-9.75-4.25-22-8.5-29.75-5.5-29.75-5.5-3.25 3.5-22 8-27.5 5.75-27.5 5.75-18.5-9-31.5-11.5-24-2-24.75-1.75z" style="opacity:.0391304;fill:url(#aq);fill-opacity:1;stroke:none"/><g style="display:inline;opacity:.269566"><path d="M219.25-182s-24.25 9-31.75 10.5-21 5.25-21 5.25c4.924-1.358 11.437 45.392 14.25 52.25l-.063.281c11.808-4.074 51.211-4.767 54.313-12.781 0 0-4.75-15.25-7.5-29.75S219.25-182 219.25-182z" style="fill:url(#ar);fill-opacity:1;stroke:none" transform="translate(0 192)"/><path d="M27-126.5s-5.5 12.75-8.25 24.75-5.75 23-5.75 23l50.625 16.281 15.781-58.906z" style="fill:url(#as);fill-opacity:1;stroke:none" transform="translate(0 192)"/><path d="M26-24.5S22-14.25 18.5-.25s-5 30.75-5 30.75.147-.045.438-.094c2.033-.338 11.218-1.5 28.062 1.344 19.25 3.25 32.25 6 32.25 6l1.469-52.5-.75.125z" style="fill:url(#at);fill-opacity:1;stroke:none" transform="translate(0 192)"/><path d="M114.75-180.25s-3.25 3.5-22 8-27.5 5.75-27.5 5.75c5.182 14.704 12.03 29.27 14.25 44.75l-.094.313 48.031-3.938 1.126.25c-3.363-13.323-7.797-54.592-13.813-55.125z" style="fill:url(#au);fill-opacity:1;stroke:none" transform="translate(0 192)"/><path d="M117.594-78.094 63.969-62.375l-.344-.094L63.5-62l12.25 46.5-.031.75 49.469-8.875.53.188.032-.063-8.25-54.25.094-.344z" style="fill:url(#av);fill-opacity:1;stroke:none" transform="translate(0 192)"/><path d="M128.563-125.125c.234.928.463 1.742.687 2.375l-11.656 44.656.093-.031L169.5-60.75l11.187-52.969c-.356.123-.695.246-1 .375l-51.125-11.781z" style="fill:url(#aw);fill-opacity:1;stroke:none" transform="translate(0 192)"/><path d="M125.531-23.5 114.5 25s5.5.5 22.5 6.25c2.125.719 4.163 1.406 6.125 2.031 1.962.626 3.855 1.186 5.625 1.719 10.617 3.2 17.5 4.75 17.5 4.75l12.719-45.406c-.513.182-1.019.38-1.531.562z" style="fill:url(#ax);fill-opacity:1;stroke:none" transform="translate(0 192)"/><path d="M218-76c-15.666 6.288-31.698 11.15-48.063 15.406l-.437-.156 9.5 55-.031.094c17.839-6.36 35.381-13.387 52.781-20.844 0 0-.5-4.5-3.75-19.75S218-76 218-76Z" style="fill:url(#ay);fill-opacity:1;stroke:none" transform="translate(0 192)"/></g><g style="display:inline;opacity:.0434783"><path d="M13.719-179.969a58.605 58.605 0 0 0-2.719.063c-.445.018-.855.039-1.156.062-.03.002-.066-.002-.094 0-.398.033-.656.063-.75.094 0 0 7.5 13 11.75 27.75S27-126.5 27-126.5l51.469 5.125.937-.063.094-.312c-2.22-15.48-9.068-30.046-14.25-44.75 0 0-18.5-9-31.5-11.5-1.018-.196-2.01-.37-3-.531-.596-.097-1.167-.197-1.75-.281-.237-.035-.453-.062-.688-.094-1.306-.182-2.588-.34-3.812-.469-.735-.077-1.395-.128-2.094-.187a114.157 114.157 0 0 0-4.781-.313 96.716 96.716 0 0 0-3.906-.094z" style="fill:url(#az);fill-opacity:1;stroke:none" transform="translate(0 192)"/><path d="M13-78.75s5.75 16 9.25 30S26-24.5 26-24.5l48.969 9.875.75-.125.031-.75L63.5-62l.125-.469z" style="fill:url(#aA);fill-opacity:1;stroke:none" transform="translate(0 192)"/><path d="m127.438-125.375-47.97 4h-.062L63.625-62.469l.344.094 53.625-15.719 11.656-44.656c-.224-.633-.453-1.447-.688-2.375z" style="fill:url(#aB);fill-opacity:1;stroke:none" transform="translate(0 192)"/><path d="m125.188-23.625-49.47 8.875-1.468 52.5S87 35 98.25 31.5 114.5 25 114.5 25l11.219-48.438z" style="fill:url(#aC);fill-opacity:1;stroke:none" transform="translate(0 192)"/><path d="M114.75-180.25c6.016.533 10.45 41.802 13.813 55.125l51.125 11.781c.304-.13.643-.252 1-.375l.062-.281c-2.813-6.858-9.326-53.608-14.25-52.25 0 0-.613-.254-1.719-.719a350.283 350.283 0 0 0-20.281-7.781c-12.25-4.25-29.75-5.5-29.75-5.5z" style="fill:url(#aD);fill-opacity:1;stroke:none" transform="translate(0 192)"/><path d="m117.688-78.125-.094.031-.094.344 8.25 53.25-.219 1 51.907 18.406c.512-.181 1.019-.38 1.53-.562L179-5.75l-9.5-55z" style="fill:url(#aE);fill-opacity:1;stroke:none" transform="translate(0 192)"/><path d="M231.75-26.5c-17.4 7.457-34.942 14.484-52.781 20.844L166.25 39.75s13-2.75 26-5.75 26.5-8 26.5-8S218 21 223 1.5s8.75-28 8.75-28z" style="fill:url(#aF);fill-opacity:1;stroke:none" transform="translate(0 192)"/><path d="M235-126.5c-3.102 8.014-42.505 8.707-54.313 12.781L169.5-60.75l.438.156C186.302-64.85 202.334-69.712 218-76c0 0 1.75-10.5 6.75-23.75S235-126.5 235-126.5z" style="fill:url(#aG);fill-opacity:1;stroke:none" transform="translate(0 192)"/></g></g><g style="display:inline"><path d="M131.306 49.043c40.659-32.174 78.135-12.728 77.782 5.303-.354 18.031-56.569 70.357-76.368 66.114-19.799-4.242-25.456-53.386-1.414-71.417z" style="opacity:.464164;fill:url(#aH);fill-opacity:1;stroke:none"/><path d="m48.148 239.45-4.807 4.557c-5.007-5.315-10.24-10.706-15.08-16.133l4.49-4.072c6.83 6.534 8.873 8.53 15.397 15.648z" style="fill:url(#aI);fill-opacity:1;stroke:none"/><g transform="matrix(.0384 0 0 .0384 174.414 97.465)"><circle cx="231.178" cy="299.517" r="239.72" style="fill:url(#aJ)" transform="matrix(6.5609 0 0 6.6908 -1516.7 -2004)"/><g clip-path="url(#aK)" transform="matrix(1.0518 0 0 1.0648 0 0)"><path d="M-2100-1470h4200v2940h-4200z" style="fill:#00923f"/><path d="M-1743 0 0 1113 1743 0 0-1113Z" style="fill:#f8c300"/><circle r="735" style="fill:#28166f"/><path d="M-672.46-297.051A1786.455 1786.455 0 0 1-420-315a1786.432 1786.432 0 0 1 348.236 34.298A1786.43 1786.43 0 0 1 263.09-179.124C431.083-109.54 588.257-13.981 727.58 102.85c-1.761 39.109-12.894 78.218-24.964 117.327C561.283 93.338 398.365-9.441 222.908-82.117A1681.346 1681.346 0 0 0-92.248-177.72 1681.347 1681.347 0 0 0-420-209.999c-97.502 0-195.705 8.515-291.734 25.4 5.568-25.702 21.116-74.968 39.274-112.452z" clip-path="url(#clipcircle-8)" style="fill:#fff"/><g style="fill:#00923f" transform="translate(-420 1470)"><g transform="rotate(-7)"><use xlink:href="#N" width="4200" height="2940" transform="translate(0 -1697.5)"/><use xlink:href="#aL" width="4200" height="2940" transform="rotate(3 32412.931 849.02)"/><use xlink:href="#aM" width="4200" height="2940" transform="rotate(6.001 16194.87 848.485)"/><use xlink:href="#aN" width="4200" height="2940" transform="rotate(8.999 10784.694 848.88)"/><use xlink:href="#aO" width="4200" height="2940" transform="rotate(11.999 8075.356 848.846)"/></g><use xlink:href="#aP" width="4200" height="2940" transform="rotate(9.75 9951.338 848.735)"/><g transform="rotate(14.5)"><use xlink:href="#P" width="4200" height="2940" transform="translate(0 -1697.5)"/><use xlink:href="#aL" width="4200" height="2940" transform="rotate(3 32412.931 849.02)"/><use xlink:href="#N" width="4200" height="2940" transform="rotate(6.001 16194.87 848.485)"/><use xlink:href="#aQ" width="4200" height="2940" transform="rotate(8.999 10784.694 848.88)"/><use xlink:href="#aL" width="4200" height="2940" transform="rotate(11.999 8075.356 848.846)"/><use xlink:href="#aN" width="4200" height="2940" transform="rotate(15 6447.03 848.745)"/><use xlink:href="#aR" width="4200" height="2940" transform="rotate(18 5358.688 848.758)"/><use xlink:href="#aR" width="4200" height="2940" transform="rotate(21 4579.547 848.722)"/><use xlink:href="#N" width="4200" height="2940" transform="rotate(24 3992.922 848.773)"/></g></g><g style="fill:#fff"><use xlink:href="#aS" width="4200" height="2940" transform="translate(-600 -132)"/><use xlink:href="#aS" width="4200" height="2940" transform="translate(-535 177)"/><use xlink:href="#aT" width="4200" height="2940" transform="translate(-625 243)"/><use xlink:href="#aU" width="4200" height="2940" transform="translate(-463 132)"/><use xlink:href="#aV" width="4200" height="2940" transform="translate(-382 250)"/><use xlink:href="#aV" width="4200" height="2940" transform="translate(-404 323)"/><use xlink:href="#aS" width="4200" height="2940" transform="translate(228 -228)"/><use xlink:href="#aS" width="4200" height="2940" transform="translate(515 258)"/><use xlink:href="#aT" width="4200" height="2940" transform="translate(617 265)"/><use xlink:href="#aV" width="4200" height="2940" transform="translate(545 323)"/><use xlink:href="#aV" width="4200" height="2940" transform="translate(368 477)"/><use xlink:href="#aT" width="4200" height="2940" transform="translate(367 551)"/><use xlink:href="#aT" width="4200" height="2940" transform="translate(441 419)"/><use xlink:href="#aV" width="4200" height="2940" transform="translate(500 382)"/><use xlink:href="#aT" width="4200" height="2940" transform="translate(365 405)"/><use xlink:href="#aV" width="4200" height="2940" transform="translate(-280 30)"/><use xlink:href="#aT" width="4200" height="2940" transform="translate(200 -37)"/><use xlink:href="#aS" width="4200" height="2940" transform="translate(0 330)"/><use xlink:href="#aV" width="4200" height="2940" transform="translate(85 184)"/><use xlink:href="#aV" width="4200" height="2940" transform="translate(0 118)"/><use xlink:href="#aT" width="4200" height="2940" transform="translate(-74 184)"/><use xlink:href="#aU" width="4200" height="2940" transform="translate(-37 235)"/><use xlink:href="#aV" width="4200" height="2940" transform="translate(220 495)"/><use xlink:href="#aT" width="4200" height="2940" transform="translate(283 430)"/><use xlink:href="#aT" width="4200" height="2940" transform="translate(162 412)"/><use xlink:href="#aS" width="4200" height="2940" transform="translate(-295 390)"/><use xlink:href="#aW" width="4200" height="2940" transform="translate(0 575)"/></g></g></g><path d="M125.202 146.679c-27.18-27.18-27.18-71.248 0-98.428 27.18-27.18 71.247-27.18 98.427 0 27.18 27.18 27.18 71.248 0 98.428-27.18 27.18-71.247 27.18-98.427 0zm2.953-2.953c26.092 26.092 67.413 27.077 93.506.984 26.092-26.093 25.108-67.413-.985-93.506-26.092-26.093-67.413-27.077-93.506-.984-26.092 26.093-25.108 67.413.985 93.506z" style="fill:#2d3335;fill-opacity:1;stroke:none"/><path d="M125.202 146.678c-27.18-27.18-27.18-71.247 0-98.427.166-.165.325-.329.492-.492-26.685 27.218-26.522 70.92.492 97.935 27.014 27.014 70.718 27.177 97.935.492-.163.168-.326.327-.492.492-27.18 27.18-71.247 27.18-98.427 0zm2.46-96.95c.163-.167.328-.327.493-.492 26.092-26.093 67.413-25.109 93.506.984 26.092 26.093 27.077 67.413.984 93.506-.165.165-.326.33-.492.492 25.587-26.118 24.45-67.086-1.477-93.014-25.927-25.928-66.896-27.064-93.013-1.476Z" style="fill:#9eaaac;fill-opacity:1;stroke:none"/><path d="M132.803 140.037c26.092 26.093 68.397 26.093 94.49 0 26.092-26.093 26.092-68.398 0-94.49-26.093-26.093-68.398-26.093-94.49 0-26.093 26.092-26.093 68.397 0 94.49z" style="fill:#d0e9f2;fill-opacity:.196078;stroke:none"/><path d="M127.953 143.493c26.093 26.092 68.398 26.092 94.49 0 26.093-26.093 26.093-68.398 0-94.49-26.092-26.093-68.397-26.093-94.49 0-26.092 26.092-26.092 68.397 0 94.49z" style="fill:url(#aX);fill-opacity:1;stroke:none"/><path d="m116.19 127.27-5.752 4.09a72.425 72.425 0 0 0 12.795 17.287 72.425 72.425 0 0 0 17.287 12.796l4.09-5.752a65.286 65.286 0 0 1-16.455-11.965 65.287 65.287 0 0 1-11.965-16.456z" style="fill:url(#aY);fill-opacity:1;stroke:none"/><path d="M124.956 146.925a22.271 22.271 0 0 1 4.122 5.72l-26.207 26.207a22.271 22.271 0 0 1-5.72-4.122 22.271 22.271 0 0 1-4.122-5.72l26.206-26.207a22.27 22.27 0 0 1 5.72 4.122z" style="fill:url(#aZ);fill-opacity:1;stroke:none"/><path d="m116.404 171.224-66.068 66.069c-3.984-2.192-5.831-3-9.29-6.46-3.458-3.458-4.266-5.305-6.458-9.289l66.068-66.068c5.063 3.748 12.117 10.398 15.748 15.748z" style="fill:url(#ba);fill-opacity:1;stroke:none"/><path d="M105.917 166.11c3.458 3.459 7.434 6.667 8.519 11.02l-64.1 64.1c-6.516-5.155-14.554-12.791-19.685-19.686l64.1-64.1c3.491.224 7.658 5.16 11.117 8.618z" style="fill:url(#bb);fill-opacity:1;stroke:none"/><path d="M105.672 166.355c3.458 3.459 7.68 6.422 8.764 10.775l-64.1 64.1c-7.877-6.908-11.797-10.625-19.685-19.686l64.1-64.1c3.491.224 7.414 5.453 10.872 8.911z" style="opacity:.595652;fill:url(#bc);fill-opacity:1;stroke:none"/></g></svg>