<svg xmlns="http://www.w3.org/2000/svg" width="256" height="256" viewBox="0 0 67.733 67.733"><defs><clipPath id="a" clipPathUnits="userSpaceOnUse"><path d="M0 340.157h510.236V0H0Z"/></clipPath></defs><path d="M0 0h4.788l1.193.002 1.167.006L8.291.02l1.116.013 1.09.02 1.066.023 1.04.029 1.013.032.988.037.963.039.937.045.912.049.886.054.86.057.835.062.81.065.783.07.758.076.732.079.707.082.682.087.655.092.63.096.605.098.578.105.554.107.527.114.503.115.476.121.451.125.425.129.4.133.381.139.368.146.357.15.346.157.333.164.32.17.31.175.296.184.284.187.274.196.26.201.25.207.235.215.225.221.213.224.2.233.188.24.176.244.164.252.152.258.14.263.128.27.115.277.104.283.091.29.08.294.066.301.056.309.042.314.031.321.019.326.005.332-.006.349-.02.344-.032.338-.046.33-.059.324-.071.317-.085.312-.098.305-.11.299-.124.291-.137.287-.148.279-.163.274-.176.265-.189.26-.201.254-.214.248-.229.242-.24.235-.253.228-.268.223-.279.215-.293.209-.306.203-.318.197-.332.189-.345.184-.357.178-.371.172-.383.164-.398.158-.409.152-.427.147-.451.14-.473.139-.496.131-.52.129-.543.123-.564.117-.588.113-.612.11-.634.103-.657.102-.679.093-.702.09-.726.086-.749.08-.771.076-.794.073-.817.066-.84.063-.862.058-.886.053-.908.049-.93.043-.954.039-.977.035-.999.029-1.023.026-1.045.021-1.067.016-1.091.012-1.113.005-1.136.004H0Zm75.791-43.863H39.115L0-8.139v-35.724h-31.789v76.447h45.522l1.68-.004 1.654-.016 1.628-.027 1.601-.037 1.574-.047 1.549-.058 1.521-.069 1.496-.08 1.468-.088 1.442-.099 1.415-.112 1.389-.121 1.363-.133 1.336-.142 1.308-.153 1.283-.164 1.256-.173 1.23-.186 1.203-.195 1.176-.205 1.149-.215 1.122-.229 1.097-.236 1.069-.248 1.042-.258 1.017-.269.988-.28.963-.291.936-.301.909-.31.882-.322.855-.332.832-.344.806-.354.778-.363.754-.375.725-.387.7-.396.674-.406.647-.42.62-.428.594-.44.568-.449.541-.461.515-.472.489-.481.462-.494.436-.504.41-.514.382-.525.357-.535.33-.545.303-.557.277-.568.251-.576.225-.59.198-.6.171-.609.145-.619.119-.631.093-.643.067-.65.039-.664.013-.672-.009-.492-.027-.484-.046-.483-.062-.476-.082-.473-.1-.469-.117-.463-.135-.461-.154-.453-.172-.451-.19-.445-.207-.442-.226-.435-.244-.434-.263-.428-.28-.423-.298-.418-.316-.414-.335-.411-.353-.406-.37-.4-.389-.397-.407-.39-.425-.389-.442-.383-.462-.377-.478-.375-.498-.369-.515-.365-.533-.361-.552-.356-.569-.352-.581-.343-.591-.336-.603-.326-.612-.319-.624-.308-.634-.299-.645-.291-.656-.279-.667-.274-.676-.262-.689-.254-.697-.246-.709-.234-.72-.227-.73-.218-.741-.207-.752-.2-.76-.191-.773-.18-.783-.172-.794-.164-.804-.154-.814-.144-.824-.137-.836-.125-.846-.117-.856-.11-.867-.099-.876-.09-.888-.082-.898-.07-.915-.065z" style="fill:#040606;fill-opacity:1;fill-rule:evenodd;stroke:none" transform="matrix(.1357 0 0 -.1357 56.087 45.098)"/><path d="M0 0v76.447h36.577l1.812-.006 1.782-.015 1.753-.028 1.723-.041 1.693-.048 1.663-.063 1.634-.072 1.604-.084 1.573-.094 1.545-.107 1.515-.118 1.484-.128 1.455-.139 1.426-.152 1.396-.163L62 75.016l1.336-.186 1.306-.195 1.275-.207 1.247-.219 1.215-.23 1.186-.241 1.157-.252 1.127-.263 1.095-.276 1.067-.287 1.036-.297 1.007-.308.975-.319.947-.332.916-.341.886-.354.861-.365.833-.379.805-.389.78-.402.75-.414.723-.428.697-.437.669-.452.641-.463.614-.474.587-.488.559-.5.532-.512.505-.526.478-.535.45-.549.422-.56.395-.574.368-.584.341-.598.313-.609.287-.623.259-.633.231-.647.204-.658.177-.672.15-.683.122-.696.096-.707.068-.72.04-.731.015-.744-.015-.689-.041-.682-.068-.672-.096-.662-.124-.652-.15-.645-.179-.633-.205-.625-.234-.615-.261-.605-.288-.598-.316-.588-.343-.576-.371-.569-.399-.56-.425-.549-.454-.541-.48-.531-.509-.522-.536-.511-.564-.504-.59-.494-.62-.485-.645-.474-.674-.467-.702-.455-.729-.448-.755-.439-.786-.428-.811-.42-.84-.408-.866-.402-.889-.387-.909-.377-.932-.363-.951-.352-.974-.338-.995-.328-1.016-.314-1.036-.301-1.059-.289-1.08-.277-1.101-.266-1.122-.252-1.143-.24-1.164-.229-1.186-.215-1.207-.205-1.228-.189-1.249-.18-1.27-.166-1.291-.154-1.312-.143-1.333-.129-1.355-.117-1.375-.105L51.1 29.5l-1.417-.08-1.439-.068-1.459-.055-1.481-.043-1.501-.031-1.523-.018-1.543-.008h-8.74V0Zm31.997 41.938h4.58l.805.003.792.008.777.014.764.017.75.026.735.029.722.037.708.039.693.047.68.051.666.057.651.062.639.068.624.073.609.078.597.084.582.09.568.093.554.102.541.104.528.111.512.115.499.123.485.125.471.133.457.137.444.144.429.147.416.154.402.158.388.164.374.17.363.178.349.184.339.189.328.195.316.205.304.209.294.215.282.223.271.228.259.237.247.242.236.248.225.254.214.262.201.267.19.274.179.281.167.287.156.295.144.299.133.308.122.313.109.318.099.326.087.334.075.338.063.346.052.351.04.36.03.365.017.371.006.377-.006.35-.017.343-.03.338-.04.332-.052.327-.063.318-.075.314-.087.307-.099.301-.109.297-.122.289-.133.283-.145.277-.155.272-.167.265-.179.26-.19.254-.201.248-.214.242-.225.235-.236.23-.247.225-.26.217-.27.212-.282.207-.294.2-.304.195-.317.187-.327.184-.339.176-.349.172-.363.164-.374.16-.388.154-.403.151-.415.142-.429.141-.444.133-.458.129-.47.123-.485.119-.499.115-.512.107-.528.104-.541.098-.554.093-.568.088-.582.084-.597.078-.61.073-.623.068-.639.062-.651.059-.666.053-.68.047-.693.043-.708.037-.722.033-.735.027-.75.024-.764.017-.777.012-.792.008-.805.002h-4.58z" style="fill:#040606;fill-opacity:1;fill-rule:evenodd;stroke:none" transform="matrix(.1357 0 0 -.1357 36.075 51.05)"/><path d="M0 0v76.447h83.002V65.9H24.161V46.84h58.841V35.936H24.161V0Z" style="fill:#040606;fill-opacity:1;fill-rule:evenodd;stroke:none" transform="matrix(.1357 0 0 -.1357 21.31 51.05)"/><path d="M0 0h23.85v-46.414l.009-.643.027-.63.046-.622.062-.611.082-.601.099-.592.118-.58.136-.573.154-.56.172-.551.191-.541.208-.531.226-.52.245-.511.263-.5.281-.491.299-.48.317-.471.336-.461.354-.449.373-.441.39-.43.408-.422.427-.41.445-.4.463-.391.482-.381.499-.369.518-.361.537-.352.554-.34.572-.332.591-.318.609-.309.627-.299.644-.289.663-.279.68-.268.698-.257.716-.25.734-.237.751-.228.77-.219.788-.207.805-.197.823-.188.842-.178.859-.167.877-.157.894-.146.913-.137.93-.127.949-.117.966-.106.984-.097 1.002-.086 1.02-.076 1.038-.065 1.056-.056 1.073-.045 1.092-.035 1.108-.026 1.127-.016 1.145-.005 1.143.005 1.124.016 1.106.026 1.087.035 1.072.045 1.052.056 1.035.065 1.016.076.999.086.982.097.963.106.945.117.929.127.909.137.892.146.874.157.857.167.839.178.822.188.803.197.785.207.768.219.75.228.733.237.715.25.696.257.68.268.661.279.644.289.626.299.609.309.59.318.573.332.555.34.536.352.518.361.5.369.481.381.463.391.445.4.427.41.409.422.39.43.372.441.353.449.336.461.318.471.299.48.281.491.264.5.244.511.226.52.209.531.19.541.172.551.154.56.136.573.118.58.099.592.081.601.064.611.045.622.027.63.009.643V0h24.162v-47.572l-.015-.963-.045-.945-.074-.932-.104-.916-.134-.9-.163-.885-.192-.869-.223-.856-.252-.84-.282-.824-.312-.808-.342-.793-.371-.78-.401-.763-.431-.748-.46-.733-.49-.719-.52-.701-.55-.687-.579-.672-.61-.656-.639-.643-.669-.625-.699-.611-.728-.596-.758-.58-.789-.565-.817-.55-.849-.534-.877-.519-.908-.506-.937-.488-.968-.473-.998-.459-1.027-.443-1.059-.43-1.088-.414-1.119-.398-1.149-.383-1.179-.369-1.209-.352-1.239-.34-1.27-.322-1.3-.309-1.329-.293-1.361-.279-1.389-.264-1.421-.248-1.45-.232-1.48-.219-1.51-.203-1.54-.187-1.57-.172-1.601-.158-1.63-.145-1.661-.127-1.69-.113-1.72-.098-1.75-.082-1.78-.068-1.81-.053-1.84-.037-1.87-.024-1.9-.007-1.902.007-1.873.024-1.842.037-1.812.053-1.781.068-1.751.082-1.721.098-1.691.113-1.66.127-1.631.143-1.599.158-1.569.174-1.539.187-1.508.203-1.479.217-1.448.232-1.417.248-1.387.264-1.357.277-1.326.293-1.296.307-1.266.322-1.235.338-1.204.352-1.175.369-1.144.381-1.113.398-1.083.412-1.052.428-1.022.442-.991.457-.962.472-.93.487-.902.503-.872.518-.842.533-.813.549-.782.564-.754.581-.724.593-.693.612-.664.625-.635.64-.605.657-.576.671-.546.688-.516.701-.488.719-.457.732-.427.75-.398.764-.369.779-.339.795-.31.811-.28.826-.251.84-.22.857-.192.873-.162.887-.133.904-.103.918-.074.934-.044.949-.015.965Z" style="fill:#040606;fill-opacity:1;fill-rule:evenodd;stroke:none" transform="matrix(.1357 0 0 -.1357 1.354 40.676)"/><path d="M1.321 52.82h65.09v.558H1.322Z" style="fill:#104f8c;fill-opacity:1;fill-rule:evenodd;stroke:none;stroke-width:.135708"/><g clip-path="url(#a)" transform="matrix(.1357 0 0 -.1357 -.755 58.826)"><path d="M27.862 273.001h12.317v-2.216H27.862ZM482.13 273.001h-12.317v-2.216h12.317zM27.862 206.979h12.317v-2.215H27.862ZM482.13 206.979h-12.317v-2.215h12.317zM49.045 273.001h12.321v-2.216H49.045ZM460.944 273.001h-12.32v-2.216h12.32zM49.045 206.979h12.321v-2.215H49.045ZM460.944 206.979h-12.32v-2.215h12.32zM70.233 273.001h12.318v-2.216H70.233ZM439.759 273.001h-12.316v-2.216h12.316zM70.233 206.979h12.318v-2.215H70.233ZM439.759 206.979h-12.316v-2.215h12.316zM91.422 273.001h12.317v-2.216H91.422ZM418.57 273.001h-12.315v-2.216h12.315zM91.422 206.979h12.317v-2.215H91.422ZM418.57 206.979h-12.315v-2.215h12.315zM112.606 273.001h12.563v-2.216h-12.563zM397.383 273.001h-12.56v-2.216h12.56zM112.606 206.979h12.563v-2.215h-12.563zM397.383 206.979h-12.56v-2.215h12.56zM133.792 273.001h12.318v-2.216h-12.318zM376.199 273.001h-12.316v-2.216h12.316zM133.792 206.979h12.318v-2.215h-12.318zM376.199 206.979h-12.316v-2.215h12.316zM261.189 272.755h13.547v-2.218h-13.547zM263.654 269.552h8.865v-1.724h-8.865zM174.193 292.462h161.853v-2.463H174.193Z" style="fill:#104f8c;fill-opacity:1;fill-rule:nonzero;stroke:none"/><path d="M0 0zm117.754-17.985h18.97l-18.97 6.654-45.823 16.01h-.243L6.649-17.985Zm0-11.084h16.014v8.623H9.606v-8.623zm44.836 8.623h-26.361v-8.623h26.361zm77.353-11.089zm78.584 24.142-78.338 27.595-.246-.248-78.831-27.347zm-78.788-21.676v.008h75.133v8.615H164.809v-8.623zm.204-2.454v-.012H0v2.466h7.39v8.623H0v2.461L45.081-2.219H0V0h51.487l20.201 7.143h.243L92.133 0h83.76l64.05 22.663h.246L303.992 0h83.265l20.453 7.389L427.904 0h51.491v-2.219h-44.836l44.836-15.766v-2.461h-7.14v-8.623h7.382v-2.466H407.71Zm105.913 11.099v-8.624l61.854-.021h62.075v8.623zm-2.961 2.462 129.599-.023L407.71 4.679zm-6.894 0 44.607 15.743h-70.212l15.026-5.174v-2.462H154.214v2.462l15.028 5.174H98.786l18.968-6.649 25.865-9.117zm7.391-11.086v8.624l-26.297-.022v-8.615z" style="fill:#104f8c;fill-opacity:1;fill-rule:nonzero;stroke:none" transform="translate(15.3 305.027)"/><path d="M184.412 272.76h13.548v-2.218h-13.548zM186.629 269.557h9.116v-1.725h-9.116zM261.115 272.76h13.551v-2.218h-13.551zM263.334 269.557h9.116v-1.725h-9.116zM286.929 272.76h13.55v-2.218h-13.55zM289.147 269.557h9.112v-1.725h-9.112zM235.672 272.572h13.3v-2.217h-13.3zM237.885 269.369h8.868v-1.724h-8.868zM210.028 272.68h13.301v-2.217h-13.301zM212.243 269.479h8.867v-1.724h-8.867zM312.519 272.76h13.301v-2.218h-13.301zM314.735 269.557h8.867v-1.725h-8.867zM182.594 183.829h17.242v-2.22h-17.242zM259.297 183.829h17.241v-2.22h-17.241zM285.108 183.829h17.242v-2.22h-17.242zM233.698 183.642h17.246v-2.219h-17.246zM208.053 183.748H225.3v-2.218h-17.247zM310.545 183.828h17.244v-2.219h-17.244z" style="fill:#104f8c;fill-opacity:1;fill-rule:nonzero;stroke:none"/><path d="M297.786 237.735h17.324v-33.468h-17.324zm-25.813 0h17.324v-33.468h-17.324zm-25.568 0h17.324v-33.468h-17.324zm-25.587 0h17.268v-33.468h-17.268zm-25.547 0h17.376v-33.468h-17.376zm122.307 24.846h2.988v-74.315h-2.988zm-25.814 0h3.556v-74.315h-3.556zm-25.567 0h3.308v-74.315h-3.308zm-25.643 0h3.384v-74.315h-3.384zm-25.523 0h3.264v-74.315h-3.264zm-25.466 0h3.239v-74.315h-3.239zm-158.005 5h4.923v-57.646H31.56Zm26.111-57.646h-4.927v57.646h4.927zm21.183 0H73.93v57.646h4.924zm16.262 57.646h4.924v-57.646h-4.924zm26.113-57.646h-4.926v57.646h4.926zm21.184 0h-4.924v57.646h4.924zm44.685 27.836v2.219zm180.479-27.836h4.925v57.646h-4.925zm23.647 57.646h-2.462v-57.646h4.929v57.646zm18.724-57.646h4.93v57.646h-4.93zm23.652 57.646h-2.464v-57.646h4.927v57.646zm42.371-57.646h-2.462v57.646h4.927v-57.646zm-21.187 57.646h-2.462v-57.646h4.924v57.646zm-96.072-117.755H151.529v5.418h207.183zm-7.396 7.883H158.918v5.174h192.398zm-28.283 44.096V186.05h-7.923v15.738h-17.324V186.05h-8.489v15.738h-17.324V186.05h-8.244v15.738h-17.324V186.05h-8.319v15.738h-17.268V186.05h-8.171v15.738h-17.376V186.05h-8.173v15.755h-35.569v-44.096h5.176v7.635h7.634v7.392h181.558v-7.392h7.88v-7.635h4.935v44.096zm-135.935 63.403h8.173v-25.257h17.376v25.257h8.171v-25.257h17.268v25.257h8.319v-25.257h17.324v25.257h8.244v-25.257h17.324v25.257h8.489v-25.257h17.324v25.257h7.923v-25.235h42.08v30.071h9.605V239.99h11.578v30.054h9.612V239.99h11.575v30.054h9.856V239.99h11.579v30.054h9.362V239.99h11.578v30.054h9.852V239.99h11.58v30.054h9.613V239.99h13.791v-2.218h-13.791v-30.053h-9.613v30.053h-11.58v-30.053h-9.852v30.053H438.28v-30.053h-9.362v30.053h-11.579v-30.053h-9.856v30.053h-11.575v-30.053h-9.612v30.053h-11.578v-30.053h-9.605v30.053h-42.08v-33.504h171.661v-2.463H360.923v-12.809h133.771v-2.219H360.923v-14.041h133.771v-2.217H360.923v-12.81h133.771v-2.465H360.923v-5.418h133.77v-3.939H15.3v3.939h133.767v5.418H15.3v2.465h133.767v12.81H15.3v2.217h133.767v14.041H15.3v2.219h133.767v12.809H15.3v2.463h171.798v33.503l-42.218.001v-30.053h-9.61v30.053h-11.577v-30.053h-9.606v30.053h-11.583v-30.053h-9.606v30.053H81.074v-30.053H71.71v30.053H60.134v-30.053h-9.855v30.053H38.705v-30.053h-9.613v30.053H15.3v2.218h13.792v30.054h9.613V239.99h11.574v30.054h9.855V239.99H71.71v30.054h9.364V239.99h11.824v30.054h9.606V239.99h11.583v30.054h9.606V239.99h11.577v30.054h9.61V239.99h42.218zm156.586-99.864H166.559v5.175h177.125z" style="fill:#104f8c;fill-opacity:1;fill-rule:evenodd;stroke:none"/><path d="M182.727 174.953h16.971v2.326h-16.971zm-2.217 4.544h21.406v-6.761l-21.406-.001zM208.19 174.953h16.972v2.326H208.19Zm-2.217 4.544h21.406v-6.761l-21.406-.001zM233.834 174.899h16.971v2.325h-16.971zm-2.217 4.542h21.406v-6.76l-21.406-.001zM259.433 174.953h16.971v2.326h-16.971zm-2.218 4.544h21.406v-6.761l-21.406-.001zM285.245 174.953h16.972v2.326h-16.972zm-2.217 4.544h21.406v-6.761l-21.406-.001zM310.679 174.953h16.972v2.326h-16.972zm-2.218 4.544h21.406v-6.761l-21.406-.001z" style="fill:#104f8c;fill-opacity:1;fill-rule:evenodd;stroke:none"/></g></svg>